<?xml version="1.0" standalone="no"?>
<!DOCTYPE svg PUBLIC "-//W3C//DTD SVG 20010904//EN"
 "http://www.w3.org/TR/2001/REC-SVG-20010904/DTD/svg10.dtd">
<svg version="1.0" xmlns="http://www.w3.org/2000/svg"
 width="417.000000pt" height="325.000000pt" viewBox="0 0 417.000000 325.000000"
 preserveAspectRatio="xMidYMid meet">

<g transform="translate(0.000000,325.000000) scale(0.100000,-0.100000)"
fill="#000000" stroke="none">
<path d="M2077 3082 c-26 -2 -45 -7 -42 -13 4 -5 2 -9 -4 -9 -5 0 -13 5 -16
11 -4 6 -43 9 -105 6 -80 -3 -103 -8 -128 -26 -33 -23 -47 -27 -37 -11 4 7 -3
8 -22 4 -40 -10 -42 -12 -37 -40 3 -18 -1 -31 -13 -39 -14 -11 -15 -16 -5 -28
9 -10 10 -17 2 -22 -5 -3 -10 -17 -10 -30 0 -13 -5 -27 -11 -30 -6 -5 -4 -12
7 -20 17 -12 16 -13 -4 -19 -25 -8 -28 -24 -8 -51 14 -19 15 -19 34 -2 24 22
39 6 16 -18 -21 -21 -9 -33 17 -16 18 10 23 10 34 -6 8 -11 10 -20 3 -24 -5
-3 -10 -10 -11 -15 -1 -5 -13 -9 -26 -9 -31 -1 -40 -25 -12 -32 12 -3 21 -12
21 -19 0 -8 5 -14 10 -14 6 0 10 -9 10 -21 0 -14 -5 -19 -17 -17 -12 3 -17 12
-16 26 3 26 -5 27 -34 4 -27 -21 -22 -62 9 -62 12 0 18 -6 16 -16 -2 -10 3
-19 11 -22 8 -2 11 0 8 6 -4 5 0 15 7 21 10 8 16 9 21 1 3 -5 1 -10 -5 -10 -7
0 -9 -8 -5 -19 3 -11 -1 -25 -10 -34 -32 -33 -8 -63 41 -51 18 5 24 2 24 -10
0 -12 -6 -15 -25 -10 -15 4 -25 2 -25 -5 0 -19 -23 -12 -51 15 l-28 27 2 -24
c1 -13 6 -29 12 -34 28 -29 73 -52 93 -49 20 3 21 1 12 -15 -5 -11 -7 -26 -4
-34 3 -8 1 -18 -5 -22 -6 -3 -14 1 -17 9 -9 23 -24 20 -24 -4 0 -15 7 -20 29
-20 16 0 32 -6 35 -12 5 -10 7 -10 12 0 7 15 40 16 50 1 3 -6 19 -9 35 -7 16
3 29 2 29 -1 0 -9 313 -6 333 3 9 5 30 5 45 1 46 -12 122 -17 140 -10 9 4 70
6 135 5 85 -1 117 2 117 10 0 9 4 9 13 2 14 -12 175 -13 198 -1 9 5 20 4 27
-3 9 -9 336 -12 537 -4 92 4 95 5 94 14 -3 18 2 32 11 32 6 0 10 -9 10 -20 0
-11 6 -20 14 -20 18 0 39 26 32 39 -4 5 -2 12 4 16 6 4 8 11 4 16 -3 5 0 17 7
25 6 8 9 18 5 21 -4 4 -11 1 -16 -7 -6 -8 -10 -10 -10 -4 0 6 6 17 14 23 8 7
15 20 15 29 2 36 8 72 13 77 3 3 13 -6 22 -20 13 -20 22 -24 38 -19 18 5 20 3
14 -12 -5 -14 -4 -16 4 -8 8 8 6 19 -5 40 -8 16 -15 35 -15 42 0 7 -6 15 -14
18 -8 3 -13 16 -11 30 1 16 -3 24 -13 24 -12 0 -12 3 -2 16 11 13 10 16 -8 21
-22 5 -31 23 -12 23 16 0 12 22 -7 36 -10 7 -15 15 -11 19 14 14 56 -30 62
-65 3 -19 8 -44 9 -55 3 -14 10 -19 25 -17 12 2 22 -2 22 -8 0 -6 5 -8 10 -5
17 11 11 35 -9 35 -23 0 -31 25 -18 60 14 39 14 90 0 90 -7 0 -13 7 -13 16 0
8 -4 12 -10 9 -5 -3 -12 6 -16 20 -6 26 -18 32 -29 15 -10 -16 -28 -12 -21 5
3 9 0 15 -9 15 -8 0 -15 5 -15 10 0 12 2 12 34 0 24 -9 26 -8 23 20 -2 16 -9
36 -17 44 -13 16 -5 21 28 17 11 -2 16 14 15 47 -1 6 9 12 21 12 36 0 38 12 7
31 -32 19 -52 75 -20 59 9 -6 19 -14 21 -20 2 -6 9 -6 18 0 11 7 7 16 -24 44
-36 35 -56 43 -69 29 -4 -3 -2 -13 5 -20 9 -11 9 -17 -3 -24 -9 -5 -17 -4 -24
4 -9 13 -73 31 -153 44 -18 3 -38 1 -45 -5 -7 -6 -39 -8 -77 -6 -114 9 -332 9
-337 1 -3 -5 -15 -6 -27 -3 -22 5 -144 7 -381 7 -77 -1 -154 2 -171 5 -21 4
-36 1 -45 -9 -7 -8 -23 -12 -34 -10 -19 4 -19 4 -2 -10 21 -18 23 -41 1 -33
-9 3 -20 6 -25 6 -5 0 -9 9 -9 19 0 12 -9 23 -22 27 -24 8 -160 11 -241 6z
m-209 -52 c12 -32 4 -44 -22 -34 -12 5 -15 2 -10 -10 4 -11 1 -16 -11 -16 -9
0 -13 -5 -9 -11 5 -9 -1 -10 -20 -5 -23 6 -26 3 -26 -19 0 -14 -2 -25 -4 -25
-2 0 -13 -3 -23 -7 -15 -6 -16 -4 -6 8 7 8 10 24 7 36 -4 15 0 22 15 26 15 3
19 10 15 22 -5 11 -2 16 7 15 43 -6 59 0 59 25 0 34 16 31 28 -5z m1562 4 c0
-2 -7 -4 -15 -4 -8 0 -15 4 -15 10 0 5 7 7 15 4 8 -4 15 -8 15 -10z m170 -19
c0 -8 -4 -15 -9 -15 -13 0 -22 16 -14 24 11 11 23 6 23 -9z m-1544 -24 c24
-19 25 -20 5 -30 -24 -13 -42 -14 -21 -1 12 7 12 12 -4 29 -24 26 -12 27 20 2z
m320 -28 c-7 -7 -26 7 -26 19 0 6 6 6 15 -2 9 -7 13 -15 11 -17z m1269 -2 c-8
-13 -35 -15 -35 -2 0 5 8 11 18 13 21 5 26 2 17 -11z m-225 -1 c0 -5 -4 -10
-10 -10 -5 0 -10 5 -10 10 0 6 5 10 10 10 6 0 10 -4 10 -10z m-1126 -26 c5
-14 4 -15 -9 -4 -17 14 -19 20 -6 20 5 0 12 -7 15 -16z m1297 -11 c-8 -15 -10
-15 -11 -2 0 17 10 32 18 25 2 -3 -1 -13 -7 -23z m-1171 7 c0 -5 -7 -10 -15
-10 -8 0 -15 5 -15 10 0 6 7 10 15 10 8 0 15 -4 15 -10z m1258 -1 c-2 -6 -7
-10 -11 -10 -4 1 -17 1 -29 1 -19 0 -20 2 -8 10 20 13 53 13 48 -1z m-1434 -8
c3 -5 -3 -11 -13 -14 -14 -3 -18 -1 -14 9 6 16 19 18 27 5z m1271 -27 c-11 -8
-19 -20 -17 -25 1 -5 -8 -9 -20 -9 -20 0 -19 2 8 25 16 14 34 25 39 25 6 0 1
-8 -10 -16z m60 -4 c3 -5 17 -10 31 -10 13 0 24 -4 24 -9 0 -12 -61 -20 -85
-11 -18 7 -19 9 -3 15 10 4 15 11 12 16 -3 5 -1 9 5 9 5 0 13 -4 16 -10z
m-1804 -73 c17 -20 17 -23 2 -34 -23 -18 -34 -16 -26 4 5 14 1 15 -27 9 -19
-3 -37 -12 -41 -18 -5 -7 -12 -9 -16 -4 -4 5 -2 11 5 13 6 3 12 12 12 22 0 45
56 50 91 8z m159 -17 c0 -5 -4 -10 -10 -10 -5 0 -10 5 -10 10 0 6 5 10 10 10
6 0 10 -4 10 -10z m1703 -46 c4 -1 12 -2 17 -3 6 0 10 -8 10 -17 0 -10 -6 -14
-15 -10 -8 3 -15 2 -15 -3 0 -11 -50 -32 -60 -26 -18 11 1 32 26 27 14 -2 24
0 24 7 0 6 -7 11 -15 11 -8 0 -15 4 -15 8 0 15 12 22 24 14 6 -4 14 -7 19 -8z
m-1823 -25 c0 -5 -4 -9 -10 -9 -5 0 -10 7 -10 16 0 8 5 12 10 9 6 -3 10 -10
10 -16z m112 -6 c6 -28 -13 -63 -34 -63 -11 0 -16 5 -13 10 3 6 -3 10 -15 10
-28 0 -21 24 8 28 12 2 22 10 22 18 0 20 28 17 32 -3z m63 7 c-27 -12 -35 -12
-35 0 0 6 12 10 28 9 24 0 25 -1 7 -9z m1088 -37 c-7 -2 -21 -2 -30 0 -10 3
-4 5 12 5 17 0 24 -2 18 -5z m-1253 -13 c0 -5 -2 -10 -4 -10 -3 0 -8 5 -11 10
-3 6 -1 10 4 10 6 0 11 -4 11 -10z m1780 -29 c0 -11 9 -23 20 -26 20 -6 28
-35 10 -35 -5 0 -10 -7 -10 -15 0 -8 -4 -15 -10 -15 -5 0 -10 4 -10 10 0 6 -9
6 -23 1 -14 -6 -30 -6 -38 0 -11 7 -9 9 9 9 20 0 21 2 10 20 -7 11 -21 20 -30
20 -10 0 -18 5 -18 10 0 6 11 10 25 10 14 0 28 7 31 15 9 22 34 18 34 -4z
m-1706 -52 c-12 -14 -19 -15 -39 -5 -31 14 -31 19 -2 32 15 6 28 6 39 0 15 -9
16 -12 2 -27z m-83 -7 c-16 -5 -41 5 -41 17 0 7 10 6 26 -1 15 -7 21 -14 15
-16z m1699 -32 c0 -5 -2 -10 -4 -10 -3 0 -8 5 -11 10 -3 6 -1 10 4 10 6 0 11
-4 11 -10z m-1704 -56 c-4 -12 0 -15 17 -12 12 2 21 9 19 16 -1 8 2 11 8 7 5
-3 7 -17 4 -31 -5 -18 -1 -30 15 -43 11 -10 21 -21 21 -25 0 -12 -28 -6 -33 8
-4 9 -14 12 -29 9 -19 -5 -21 -3 -10 8 18 19 15 25 -17 39 -31 12 -33 40 -4
40 10 0 13 -6 9 -16z m1802 -9 c-8 -8 -48 8 -42 16 3 5 14 4 25 -2 12 -6 19
-12 17 -14z m72 -5 c0 -5 -4 -10 -10 -10 -5 0 -10 5 -10 10 0 6 5 10 10 10 6
0 10 -4 10 -10z m-1750 -60 c0 -5 -5 -10 -11 -10 -5 0 -7 5 -4 10 3 6 8 10 11
10 2 0 4 -4 4 -10z m1600 -4 c0 -2 -7 -7 -16 -10 -8 -3 -12 -2 -9 4 6 10 25
14 25 6z m40 -32 c0 -8 -9 -14 -20 -14 -22 0 -26 10 -8 28 13 13 28 7 28 -14z
m-210 2 c0 -3 -4 -8 -10 -11 -5 -3 -10 -1 -10 4 0 6 5 11 10 11 6 0 10 -2 10
-4z m-1505 -36 c9 -14 -9 -12 -23 2 -9 9 -15 8 -27 -8 -17 -23 -20 -12 -3 15
9 15 16 17 29 10 10 -5 21 -14 24 -19z m1635 16 c0 -2 -9 -6 -20 -9 -11 -3
-18 -1 -14 4 5 9 34 13 34 5z m84 -42 c5 -20 2 -32 -13 -46 -12 -10 -21 -25
-21 -33 0 -17 -9 -19 -30 -5 -10 6 -11 10 -3 10 14 0 45 54 36 63 -8 8 4 37
16 37 5 0 12 -12 15 -26z m-52 -6 c-6 -6 -15 -8 -19 -4 -4 4 -1 11 7 16 19 12
27 3 12 -12z"/>
<path d="M1860 2610 c0 -5 5 -10 10 -10 6 0 10 5 10 10 0 6 -4 10 -10 10 -5 0
-10 -4 -10 -10z"/>
<path d="M483 3060 c-23 -3 -48 -12 -57 -19 -11 -9 -16 -10 -16 -2 0 6 -7 11
-15 11 -22 0 -18 -21 5 -27 14 -4 19 -11 15 -23 -9 -27 5 -52 26 -47 11 3 22
1 25 -4 3 -5 -2 -9 -10 -9 -23 0 -19 -14 7 -25 14 -7 21 -17 19 -29 -2 -10 2
-23 10 -27 9 -6 7 -9 -9 -9 -19 0 -21 -3 -13 -30 10 -35 11 -35 -34 -14 -42
20 -76 13 -55 -12 12 -15 10 -16 -19 -10 -19 5 -32 4 -32 -2 0 -6 18 -13 41
-17 30 -5 38 -10 30 -18 -6 -6 -11 -16 -11 -22 0 -14 53 -16 62 -2 4 7 6 2 5
-11 0 -12 -5 -22 -9 -22 -18 0 -28 -40 -16 -59 10 -17 9 -24 -12 -46 -13 -14
-30 -23 -37 -21 -13 5 -67 -37 -58 -46 3 -2 19 -3 36 0 20 3 28 9 25 18 -4 10
0 11 18 4 13 -5 26 -7 27 -6 12 10 59 15 59 6 0 -5 -13 -10 -30 -10 -34 0 -38
-7 -13 -25 15 -11 12 -14 -21 -26 -31 -11 -36 -18 -34 -38 3 -26 28 -42 28
-18 0 8 11 22 25 31 24 16 27 16 49 -1 29 -21 39 -50 23 -61 -7 -4 -12 -13
-12 -21 0 -8 -15 -19 -32 -23 -19 -5 -33 -15 -33 -23 0 -9 -10 -15 -26 -15
-14 0 -35 -5 -47 -12 l-22 -12 25 -6 c16 -4 26 -14 28 -28 2 -13 10 -22 20
-21 11 0 12 3 5 6 -18 7 -16 23 2 23 8 0 15 6 15 13 0 19 33 47 53 47 9 0 17
-5 17 -11 0 -6 7 -9 15 -5 12 4 13 2 2 -15 -10 -16 -13 -17 -15 -4 -5 21 -32
19 -32 -3 0 -12 14 -22 46 -31 30 -9 43 -18 40 -27 -5 -14 28 -29 43 -20 5 3
23 1 41 -5 21 -8 39 -8 53 -2 14 6 54 7 106 2 56 -6 88 -5 97 2 9 7 25 7 53
-1 37 -10 82 -8 134 7 9 2 17 12 17 21 0 13 5 11 20 -8 17 -23 25 -25 88 -23
38 2 81 7 95 12 16 6 28 6 35 -1 6 -6 24 -7 42 -3 17 4 29 9 26 12 -3 3 4 13
14 22 11 9 21 28 24 43 2 15 9 35 14 44 8 15 11 14 25 -7 15 -21 15 -24 -1
-43 -16 -18 -16 -19 1 -13 10 4 27 7 37 7 23 0 32 36 14 51 -8 7 -13 18 -10
26 3 7 -1 13 -8 13 -8 0 -13 7 -12 16 0 9 -5 19 -11 21 -8 3 -13 -4 -13 -16 0
-14 -9 -25 -25 -31 -14 -5 -25 -16 -25 -25 0 -21 -19 -19 -27 3 -4 9 -14 23
-22 30 -14 11 -14 14 3 27 11 8 25 15 30 14 6 0 5 -3 -1 -6 -14 -5 -18 -39 -5
-47 10 -6 47 24 60 49 6 11 16 20 24 21 7 0 24 2 37 2 24 2 24 2 5 18 -18 15
-18 15 5 8 16 -4 21 -3 17 5 -9 14 -43 14 -48 0 -5 -15 -56 -21 -63 -8 -4 5
-1 9 4 9 6 0 11 5 11 10 0 6 -8 10 -17 10 -9 0 -14 3 -11 6 11 10 -31 44 -47
38 -8 -4 -15 -2 -15 4 0 6 -3 18 -6 26 -5 12 -2 15 10 10 21 -8 20 4 -3 51
-18 37 -18 65 -1 65 5 0 15 7 24 15 13 13 19 13 35 3 18 -11 23 -10 35 7 9 13
11 22 4 26 -6 4 -7 12 -4 18 4 6 4 21 1 32 -6 19 -10 17 -37 -25 -31 -47 -48
-58 -48 -31 0 8 -9 20 -20 27 -28 18 -25 36 5 30 30 -5 33 13 5 28 -24 13 -27
55 -5 64 8 3 15 15 15 26 0 11 -7 20 -15 20 -8 0 -15 5 -15 11 0 6 8 8 19 4
21 -6 49 19 31 30 -14 8 -3 25 13 20 7 -3 25 -1 41 3 26 7 27 9 13 24 -19 18
-10 33 9 17 8 -6 21 -8 31 -5 26 10 -4 32 -55 40 -33 5 -44 3 -48 -9 -3 -8
-10 -12 -15 -9 -5 3 -6 -2 -3 -10 3 -9 1 -16 -5 -16 -6 0 -11 9 -11 19 0 27
-25 33 -71 17 -33 -12 -40 -12 -35 -1 4 10 -13 14 -75 15 -121 3 -149 3 -219
0 -36 -2 -72 0 -79 4 -16 11 -81 -2 -81 -16 0 -7 -4 -7 -13 0 -14 12 -260 21
-324 12z m67 -6 c0 -3 -7 -12 -15 -21 -20 -19 -32 -9 -15 12 12 15 30 20 30 9z
m207 -10 c-3 -3 -12 -4 -19 -1 -8 3 -5 6 6 6 11 1 17 -2 13 -5z m-267 -25 c0
-5 -9 -9 -20 -9 -11 0 -20 6 -20 14 0 9 7 12 20 9 11 -3 20 -9 20 -14z m390
11 c0 -5 -4 -10 -10 -10 -5 0 -10 5 -10 10 0 6 5 10 10 10 6 0 10 -4 10 -10z
m-300 -14 c0 -11 -19 -15 -25 -6 -3 5 1 10 9 10 9 0 16 -2 16 -4z m480 -16 c0
-5 -4 -10 -10 -10 -5 0 -10 5 -10 10 0 6 5 10 10 10 6 0 10 -4 10 -10z m-471
-36 c2 -2 -10 -2 -27 -1 -20 1 -33 8 -35 19 -5 16 -3 16 27 1 17 -8 33 -17 35
-19z m711 25 c0 -6 -8 -8 -19 -4 -12 3 -21 0 -25 -10 -3 -8 -1 -15 5 -15 6 0
7 -4 4 -10 -3 -5 -10 -10 -16 -10 -13 0 -11 34 3 48 15 15 48 16 48 1z m70 -9
c0 -5 -4 -10 -10 -10 -5 0 -10 5 -10 10 0 6 5 10 10 10 6 0 10 -4 10 -10z
m-833 -36 c-3 -3 -12 -4 -19 -1 -8 3 -5 6 6 6 11 1 17 -2 13 -5z m43 -4 c0 -5
-4 -10 -10 -10 -5 0 -10 5 -10 10 0 6 5 10 10 10 6 0 10 -4 10 -10z m70 1 c0
-5 -7 -11 -14 -14 -10 -4 -13 -1 -9 9 6 15 23 19 23 5z m-50 -73 c0 -10 -4
-18 -10 -18 -5 0 -10 15 -10 33 0 24 3 28 10 17 5 -8 10 -23 10 -32z m65 11
c4 -11 4 -23 2 -26 -9 -8 -24 5 -30 27 -7 27 20 27 28 -1z m689 -10 c-21 -23
-44 -25 -44 -4 0 16 39 36 53 28 5 -3 1 -14 -9 -24z m-39 -115 c19 -15 19 -15
-9 -12 -16 2 -31 9 -34 16 -5 17 19 15 43 -4z m-80 -34 c8 -13 -5 -13 -25 0
-13 8 -13 10 2 10 9 0 20 -4 23 -10z m-672 -29 c30 -15 34 -21 23 -31 -12 -9
-19 -7 -35 9 -12 12 -25 21 -31 21 -5 0 -10 5 -10 10 0 14 11 13 53 -9z m-13
-41 c0 -5 -7 -10 -15 -10 -8 0 -25 -11 -39 -25 -14 -14 -31 -25 -37 -25 -15 0
38 54 61 63 23 9 30 8 30 -3z m750 -50 c0 -5 -4 -10 -10 -10 -5 0 -10 5 -10
10 0 6 5 10 10 10 6 0 10 -4 10 -10z m-25 -41 c11 -17 -1 -21 -15 -4 -8 9 -8
15 -2 15 6 0 14 -5 17 -11z m75 -19 c0 -5 -2 -10 -4 -10 -3 0 -8 5 -11 10 -3
6 -1 10 4 10 6 0 11 -4 11 -10z m-674 -15 c10 -8 14 -15 7 -15 -6 0 -15 5 -18
10 -4 6 -11 8 -16 5 -5 -4 -9 -1 -9 4 0 15 13 14 36 -4z m571 -11 c-7 -7 -37
7 -37 17 0 6 9 5 21 -1 11 -7 19 -14 16 -16z m93 -14 c0 -5 -4 -10 -9 -10 -6
0 -13 5 -16 10 -3 6 1 10 9 10 9 0 16 -4 16 -10z m-155 -10 c3 -5 1 -10 -4
-10 -6 0 -11 5 -11 10 0 6 2 10 4 10 3 0 8 -4 11 -10z m-573 -33 c25 -23 25
-24 6 -36 -18 -11 -19 -10 -13 8 7 23 -4 28 -23 9 -9 -9 -12 -6 -10 15 3 33 8
33 40 4z m588 -47 c0 -5 -5 -10 -11 -10 -5 0 -7 5 -4 10 3 6 8 10 11 10 2 0 4
-4 4 -10z m100 -10 c0 -5 -2 -10 -4 -10 -3 0 -8 5 -11 10 -3 6 -1 10 4 10 6 0
11 -4 11 -10z m60 6 c0 -11 -19 -15 -25 -6 -3 5 1 10 9 10 9 0 16 -2 16 -4z
m-209 -29 c-10 -9 -11 -8 -5 6 3 10 9 15 12 12 3 -3 0 -11 -7 -18z m-431 -17
c0 -5 -7 -10 -16 -10 -8 0 -12 5 -9 10 3 6 10 10 16 10 5 0 9 -4 9 -10z m520
6 c0 -3 -4 -8 -10 -11 -5 -3 -10 -1 -10 4 0 6 5 11 10 11 6 0 10 -2 10 -4z
m-689 -39 c-8 -8 -11 -7 -11 4 0 20 13 34 18 19 3 -7 -1 -17 -7 -23z m787 17
c2 -1 -1 -12 -8 -23 -11 -22 -30 -28 -30 -11 0 6 -6 10 -14 10 -9 0 -12 7 -9
20 4 16 11 19 32 13 14 -3 27 -7 29 -9z m-270 -14 c7 -11 10 -20 7 -20 -3 0
-14 9 -25 20 -12 12 -15 20 -7 20 7 0 18 -9 25 -20z m87 -1 c5 -5 1 -9 -12 -9
-11 0 -27 7 -34 16 -12 15 -11 16 11 9 14 -4 29 -11 35 -16z m80 -9 c3 -6 -1
-7 -9 -4 -18 7 -21 14 -7 14 6 0 13 -4 16 -10z m15 -28 c0 -13 -12 -22 -22
-16 -10 6 -1 24 13 24 5 0 9 -4 9 -8z m-600 -12 c0 -5 -2 -10 -4 -10 -3 0 -8
5 -11 10 -3 6 -1 10 4 10 6 0 11 -4 11 -10z"/>
<path d="M373 2923 c-13 -2 -23 -10 -23 -17 0 -16 61 -7 61 9 1 12 -9 13 -38
8z"/>
<path d="M1405 2911 c-3 -5 8 -9 25 -9 16 1 30 5 30 10 0 11 -47 10 -55 -1z"/>
<path d="M397 2887 l-38 -21 43 -13 c24 -7 44 -13 46 -13 2 0 0 9 -3 20 -4 11
-2 20 4 20 6 0 11 7 11 15 0 20 -17 18 -63 -8z"/>
<path d="M3730 2880 c-8 -5 -11 -12 -7 -16 4 -4 13 -2 19 4 15 15 7 24 -12 12z"/>
<path d="M1414 2864 c-17 -14 -17 -15 -1 -10 10 3 27 6 38 6 10 0 19 5 19 10
0 15 -34 12 -56 -6z"/>
<path d="M3708 2843 c7 -3 16 -2 19 1 4 3 -2 6 -13 5 -11 0 -14 -3 -6 -6z"/>
<path d="M1370 2832 c0 -10 41 -24 49 -17 6 7 0 11 -26 19 -13 4 -23 3 -23 -2z"/>
<path d="M3754 2766 c-18 -14 -18 -15 9 -25 38 -15 41 -14 21 6 -15 16 -15 17
2 24 14 6 15 8 3 8 -8 1 -24 -5 -35 -13z"/>
<path d="M1383 2743 c9 -9 19 -14 23 -11 10 10 -6 28 -24 28 -15 0 -15 -1 1
-17z"/>
<path d="M326 2694 c-8 -21 -8 -24 3 -24 12 0 22 28 12 35 -5 3 -12 -2 -15
-11z"/>
<path d="M1476 2663 c-3 -4 -23 -8 -44 -9 -20 -1 -40 -2 -44 -3 -9 -1 11 -50
29 -72 7 -8 13 -25 13 -37 0 -12 5 -22 11 -22 12 0 2 58 -13 78 -8 9 0 12 36
12 44 0 46 1 46 30 0 28 -17 40 -34 23z"/>
<path d="M365 2650 c4 -6 11 -8 16 -5 14 9 11 15 -7 15 -8 0 -12 -5 -9 -10z"/>
<path d="M1526 2652 c-3 -5 3 -20 12 -35 13 -19 21 -23 32 -16 13 8 13 11 -1
22 -9 6 -14 18 -12 25 5 13 -23 17 -31 4z"/>
<path d="M360 2620 c0 -5 7 -10 16 -10 8 0 12 5 9 10 -3 6 -10 10 -16 10 -5 0
-9 -4 -9 -10z"/>
<path d="M376 2585 c4 -8 10 -12 15 -9 14 8 10 24 -6 24 -9 0 -12 -6 -9 -15z"/>
<path d="M1477 2544 c-8 -8 1 -24 14 -24 5 0 9 7 9 15 0 15 -12 20 -23 9z"/>
<path d="M1528 2529 c-21 -11 -38 -24 -38 -30 0 -6 3 -9 8 -7 4 2 24 10 45 18
20 8 37 20 37 27 0 17 -8 16 -52 -8z"/>
<path d="M345 2411 c-6 -11 9 -23 19 -14 9 9 7 23 -3 23 -6 0 -12 -4 -16 -9z"/>
<path d="M3705 2280 c3 -5 10 -10 16 -10 5 0 9 5 9 10 0 6 -7 10 -16 10 -8 0
-12 -4 -9 -10z"/>
<path d="M1460 2240 c0 -5 5 -10 10 -10 6 0 10 5 10 10 0 6 -4 10 -10 10 -5 0
-10 -4 -10 -10z"/>
<path d="M520 2221 c0 -6 5 -13 10 -16 6 -3 10 1 10 9 0 9 -4 16 -10 16 -5 0
-10 -4 -10 -9z"/>
<path d="M559 2040 c-79 -8 -124 -24 -113 -41 7 -11 -33 -49 -51 -49 -7 0 -15
9 -18 20 -3 11 -10 20 -16 20 -6 0 -11 -9 -11 -20 0 -11 7 -20 15 -20 8 0 15
-7 15 -16 0 -8 5 -12 11 -9 6 4 26 7 45 7 19 0 37 4 40 9 7 12 34 11 34 -1 0
-5 -9 -10 -19 -10 -24 0 -36 -32 -21 -60 9 -16 8 -20 -5 -20 -8 0 -15 -7 -15
-16 0 -11 -6 -15 -20 -11 -15 4 -20 0 -20 -15 0 -10 4 -17 9 -14 5 4 7 -2 4
-13 -3 -10 0 -22 6 -25 14 -9 2 -36 -16 -36 -12 0 -13 -3 -3 -15 16 -19 8 -40
-15 -40 -11 0 -21 -10 -26 -26 -6 -23 -2 -29 28 -43 18 -9 42 -16 52 -16 10 0
24 -7 31 -15 10 -12 10 -15 -3 -15 -10 0 -13 -6 -10 -21 5 -19 3 -21 -26 -14
-38 8 -41 -8 -6 -31 30 -19 34 -44 6 -37 -10 3 -22 0 -25 -5 -11 -17 5 -42 28
-43 14 -1 11 -4 -13 -11 -25 -7 -31 -12 -22 -21 6 -6 11 -15 11 -19 0 -15 -30
-8 -47 12 -26 30 -32 24 -20 -15 6 -19 16 -35 24 -35 7 0 13 -5 13 -11 0 -8
14 -10 40 -6 37 5 39 4 29 -15 -8 -14 -8 -23 0 -31 6 -6 11 -18 11 -26 0 -12
-2 -12 -12 2 -9 11 -21 15 -35 11 -22 -6 -32 -23 -15 -25 44 -8 60 -10 80 -9
13 0 32 -5 43 -10 10 -6 43 -11 72 -10 90 0 186 1 367 1 96 0 201 1 232 2 31
1 54 -1 52 -5 -3 -4 10 -6 28 -3 39 5 165 7 428 6 107 -1 224 -1 260 -1 36 -1
72 -1 80 -1 24 0 68 9 80 16 6 4 17 2 24 -4 8 -7 57 -11 122 -11 60 0 123 0
139 -1 17 -1 42 -1 58 -1 15 0 56 0 92 0 36 0 80 0 98 0 17 0 54 4 80 10 26 5
50 5 53 0 10 -16 33 -8 37 15 4 22 4 22 6 -2 1 -18 5 -22 19 -16 24 11 82 13
76 3 -6 -9 -16 -9 216 -8 383 1 362 0 379 20 9 10 32 21 51 24 28 5 31 4 13
-4 -33 -14 -28 -25 10 -25 35 0 99 23 93 34 -6 9 16 37 34 44 12 4 11 6 -2 6
-12 1 -18 9 -18 26 0 18 -4 23 -15 19 -8 -4 -25 0 -38 8 -25 17 -47 13 -47 -7
0 -20 -21 -30 -31 -14 -14 22 -11 49 5 43 7 -3 16 2 19 11 5 11 14 14 32 9 19
-5 25 -2 25 10 0 10 -6 13 -15 9 -10 -3 -15 0 -13 8 2 10 -6 13 -24 12 -28 -2
-37 10 -18 22 6 4 8 11 5 16 -4 5 -13 3 -21 -6 -21 -20 -31 -19 -37 5 -3 13 0
20 9 21 50 5 72 3 71 -6 -1 -5 7 -9 18 -7 63 9 78 13 95 22 11 6 20 15 20 21
0 6 4 8 9 4 5 -3 12 -1 16 5 10 16 -22 12 -39 -5 -8 -8 -21 -15 -29 -15 -8 0
-17 7 -21 15 -7 19 -30 19 -45 2 -6 -8 -33 -14 -62 -15 -45 -1 -49 1 -38 15 9
11 24 14 51 10 34 -5 37 -3 28 13 -15 28 -13 30 25 30 19 0 35 5 35 11 0 8 5
8 15 -1 9 -8 15 -9 15 -2 0 6 -10 18 -22 26 -18 13 -19 16 -6 16 9 0 20 5 24
11 4 8 0 9 -15 4 -14 -4 -23 -1 -27 9 -3 9 -13 16 -21 16 -11 0 -14 6 -9 23 3
12 6 25 6 30 0 11 45 8 58 -5 16 -16 21 -7 11 20 -7 19 -12 21 -28 12 -13 -7
-22 -7 -26 0 -10 15 5 31 23 26 10 -3 31 6 47 19 17 14 25 25 18 25 -12 0 -39
68 -30 76 3 3 14 6 25 7 16 1 18 4 9 18 -6 10 -20 20 -30 23 -10 2 -16 9 -12
15 3 6 0 11 -8 11 -15 0 -33 47 -23 58 3 2 12 -1 21 -8 22 -18 31 -5 11 16
-13 13 -19 14 -31 4 -8 -7 -15 -9 -15 -4 0 4 -5 3 -11 -3 -14 -14 -49 -5 -49
12 0 9 -22 13 -80 13 -44 1 -80 -3 -80 -9 0 -5 -5 -9 -11 -9 -5 0 -7 5 -4 10
10 16 -87 11 -109 -5 -15 -11 -23 -12 -33 -3 -7 6 -17 8 -21 4 -4 -4 1 -14 11
-21 20 -15 20 -46 -1 -53 -8 -2 -10 2 -5 15 5 13 0 11 -18 -8 l-24 -26 -43 33
c-23 18 -42 37 -42 41 1 4 -3 9 -9 11 -6 2 -11 -1 -11 -7 0 -6 -6 -8 -14 -5
-8 3 -12 12 -10 19 7 18 -116 31 -163 17 -21 -6 -46 -7 -64 -2 -26 8 -176 7
-516 -2 -50 -2 -86 -6 -80 -10 18 -11 -1 -10 -23 2 -10 5 -81 10 -157 9 -151
0 -549 1 -573 2 -8 1 -88 0 -177 -1 -89 -1 -166 1 -171 4 -5 3 -23 -1 -40 -9
-25 -13 -39 -13 -79 -4 -72 16 -309 19 -330 4 -14 -10 -20 -10 -31 1 -14 15
-17 15 -133 4z m871 -30 c0 -5 -2 -10 -4 -10 -3 0 -8 5 -11 10 -3 6 -1 10 4
10 6 0 11 -4 11 -10z m-945 -20 c3 -5 -1 -10 -10 -10 -9 0 -13 5 -10 10 3 6 8
10 10 10 2 0 7 -4 10 -10z m3143 -17 c-2 -9 -8 -18 -15 -20 -7 -3 -9 3 -6 16
6 25 26 28 21 4z m-98 -4 c0 -8 -37 -19 -64 -19 -18 0 -19 1 -3 13 18 12 67
17 67 6z m30 -24 c0 -8 -4 -15 -10 -15 -5 0 -7 7 -4 15 4 8 8 15 10 15 2 0 4
-7 4 -15z m120 -19 c0 -2 -7 -7 -16 -10 -8 -3 -12 -2 -9 4 6 10 25 14 25 6z
m-1800 -40 c0 -2 -8 -10 -17 -17 -16 -13 -17 -12 -4 4 13 16 21 21 21 13z
m-1365 -25 c3 -5 1 -12 -4 -15 -5 -3 -11 1 -15 9 -6 16 9 21 19 6z m3045 -16
c0 -8 -7 -15 -15 -15 -26 0 -18 20 13 29 1 1 2 -6 2 -14z m-2980 1 c0 -3 -4
-8 -10 -11 -5 -3 -10 -1 -10 4 0 6 5 11 10 11 6 0 10 -2 10 -4z m85 -6 c3 -5
1 -10 -4 -10 -6 0 -11 5 -11 10 0 6 2 10 4 10 3 0 8 -4 11 -10z m3045 -20 c0
-5 -4 -10 -10 -10 -5 0 -10 5 -10 10 0 6 5 10 10 10 6 0 10 -4 10 -10z m-3199
-36 c12 -14 11 -16 -5 -13 -11 2 -21 10 -24 17 -5 17 13 15 29 -4z m3089 -49
c0 -18 4 -23 15 -19 8 4 15 1 15 -4 0 -6 -7 -17 -15 -26 -8 -8 -15 -18 -15
-23 0 -16 -42 -35 -53 -24 -8 8 -6 11 5 11 26 0 32 19 12 41 -16 17 -16 19 -1
19 15 0 22 18 18 43 0 4 4 7 9 7 6 0 10 -11 10 -25z m-3045 -25 c3 -5 1 -10
-4 -10 -6 0 -11 5 -11 10 0 6 2 10 4 10 3 0 8 -4 11 -10z m-40 -10 c3 -5 -1
-10 -9 -10 -8 0 -18 5 -21 10 -3 6 1 10 9 10 8 0 18 -4 21 -10z m-75 -59 c-9
-17 -8 -21 4 -21 10 0 13 -6 10 -15 -8 -20 -20 -19 -45 6 -17 17 -19 23 -8 30
8 5 20 9 27 9 6 0 12 5 12 12 0 6 3 9 6 6 3 -4 1 -16 -6 -27z m60 -25 c0 -8
-4 -18 -10 -21 -5 -3 -10 3 -10 14 0 12 5 21 10 21 6 0 10 -6 10 -14z m257
-62 c-3 -3 -12 -4 -19 -1 -8 3 -5 6 6 6 11 1 17 -2 13 -5z m-211 -39 c14 -29
8 -38 -16 -23 -10 7 -15 19 -12 30 6 24 15 23 28 -7z m104 0 c0 -8 -7 -15 -15
-15 -9 0 -12 6 -9 15 4 8 10 15 15 15 5 0 9 -7 9 -15z m-78 -107 c-11 -11 -32
-3 -32 12 0 4 9 6 21 3 13 -4 17 -9 11 -15z m2983 1 c5 -6 3 -9 -7 -9 -9 0
-23 -3 -31 -6 -9 -3 -16 3 -20 16 -5 19 -3 21 21 15 15 -3 31 -11 37 -16z
m-3030 -9 c3 -5 1 -10 -4 -10 -6 0 -11 5 -11 10 0 6 2 10 4 10 3 0 8 -4 11
-10z m2080 0 c3 -5 2 -10 -4 -10 -5 0 -13 5 -16 10 -3 6 -2 10 4 10 5 0 13 -4
16 -10z m985 -14 c0 -3 -4 -8 -10 -11 -5 -3 -10 -1 -10 4 0 6 5 11 10 11 6 0
10 -2 10 -4z m-3120 -26 c0 -5 7 -10 15 -10 12 0 12 -3 -2 -20 -11 -13 -21
-16 -27 -10 -15 15 -14 50 1 50 7 0 13 -4 13 -10z m3054 -16 c12 -31 7 -36
-30 -30 -25 5 -43 3 -59 -8 -15 -10 -26 -12 -30 -6 -3 5 7 15 22 22 15 7 32
18 36 25 11 18 54 16 61 -3z m-164 -4 c0 -5 -4 -10 -10 -10 -5 0 -10 5 -10 10
0 6 5 10 10 10 6 0 10 -4 10 -10z m-680 -31 c0 -14 -17 -10 -23 5 -4 10 -1 13
9 9 7 -3 14 -9 14 -14z m91 -21 c11 -21 11 -22 -4 -9 -10 7 -17 17 -17 22 0
15 9 10 21 -13z m892 15 c-7 -2 -19 -2 -25 0 -7 3 -2 5 12 5 14 0 19 -2 13 -5z
m-2953 -33 c0 -5 -4 -10 -9 -10 -6 0 -13 5 -16 10 -3 6 1 10 9 10 9 0 16 -4
16 -10z m2855 0 c-3 -5 -17 -10 -31 -10 -13 0 -24 5 -24 10 0 6 14 10 31 10
17 0 28 -4 24 -10z m130 0 c3 -5 1 -10 -4 -10 -6 0 -11 5 -11 10 0 6 2 10 4
10 3 0 8 -4 11 -10z m-1609 -67 c-7 -7 -26 7 -26 19 0 6 6 6 15 -2 9 -7 13
-15 11 -17z"/>
<path d="M3199 2015 c-1 -8 -2 -21 -3 -27 -2 -12 12 -28 25 -28 3 0 6 16 7 35
1 25 -3 35 -13 35 -8 0 -16 -7 -16 -15z"/>
<path d="M343 1873 c-22 -8 -14 -23 12 -23 18 0 23 4 19 15 -6 16 -11 17 -31
8z"/>
<path d="M3772 1709 c-12 -18 -12 -23 0 -30 14 -9 22 9 16 36 -2 12 -6 11 -16
-6z"/>
<path d="M366 1695 c-4 -12 -1 -16 11 -13 18 3 21 20 5 26 -5 1 -12 -4 -16
-13z"/>
<path d="M3730 1615 c0 -8 4 -15 8 -15 5 0 9 7 9 15 0 8 -4 15 -9 15 -4 0 -8
-7 -8 -15z"/>
<path d="M3780 1555 c0 -8 2 -15 4 -15 2 0 6 7 10 15 3 8 1 15 -4 15 -6 0 -10
-7 -10 -15z"/>
<path d="M3775 1460 c-3 -5 -1 -10 4 -10 6 0 11 5 11 10 0 6 -2 10 -4 10 -3 0
-8 -4 -11 -10z"/>
<path d="M3660 1430 c0 -5 5 -10 11 -10 5 0 7 5 4 10 -3 6 -8 10 -11 10 -2 0
-4 -4 -4 -10z"/>
<path d="M3717 1415 c-4 -8 -16 -19 -28 -23 l-20 -8 20 -24 c16 -20 20 -22 21
-8 0 20 28 37 50 31 13 -5 13 -4 0 8 -8 8 -20 20 -26 27 -9 11 -12 10 -17 -3z"/>
<path d="M3785 1360 c-3 -5 -1 -10 4 -10 6 0 11 5 11 10 0 6 -2 10 -4 10 -3 0
-8 -4 -11 -10z"/>
<path d="M3735 1221 c-6 -5 -21 -11 -35 -13 -14 -1 -23 -7 -20 -13 10 -20 80
2 80 26 0 12 -13 11 -25 0z"/>
<path d="M1722 1039 c2 -6 8 -10 13 -10 5 0 11 4 13 10 2 6 -4 11 -13 11 -9 0
-15 -5 -13 -11z"/>
<path d="M747 1024 c-3 -4 -47 -6 -96 -5 -79 2 -91 0 -103 -18 -15 -21 -58
-20 -58 1 0 6 -7 5 -15 -2 -19 -16 -19 -30 -1 -30 9 0 12 -9 9 -27 -9 -54 -12
-58 -30 -40 -13 13 -15 20 -5 29 19 19 14 26 -19 24 -37 -2 -58 -36 -34 -56 8
-7 12 -17 8 -24 -4 -6 -8 -18 -8 -26 0 -9 -7 -14 -17 -12 -20 3 -24 -13 -7
-24 6 -3 9 -15 6 -25 -3 -13 2 -23 16 -30 17 -9 23 -8 34 7 18 25 16 34 -6 34
-11 0 -22 4 -26 10 -10 16 18 50 42 50 30 0 54 -10 47 -21 -3 -5 -14 -4 -26 2
-14 8 -23 8 -31 0 -8 -8 -6 -11 6 -11 18 0 41 -35 32 -50 -3 -5 5 -12 19 -16
21 -5 23 -9 13 -24 -7 -12 -15 -16 -22 -10 -11 9 -85 -10 -85 -22 0 -5 -7 -8
-15 -8 -8 0 -15 -6 -15 -13 0 -23 12 -27 33 -12 21 15 63 3 52 -15 -3 -5 3
-13 12 -19 15 -9 14 -10 -11 -11 -24 0 -27 -2 -16 -15 10 -12 9 -15 -4 -15 -9
0 -19 7 -22 15 -4 8 -12 15 -19 15 -17 0 -38 -27 -27 -34 16 -10 22 -47 7 -44
-15 3 -17 -4 -8 -28 4 -10 0 -20 -11 -26 -9 -5 -14 -13 -11 -19 4 -5 1 -9 -4
-9 -6 0 -11 6 -11 14 0 16 -43 27 -62 14 -10 -7 -9 -12 7 -24 l20 -15 -20 -15
c-18 -14 -16 -15 30 -8 44 7 74 11 98 13 4 1 7 12 7 26 0 15 6 25 14 25 10 0
13 -13 12 -46 -1 -35 -6 -49 -25 -63 -15 -12 -21 -23 -16 -31 6 -10 1 -12 -20
-7 -43 8 -55 -1 -49 -33 9 -41 -13 -46 -27 -5 -7 19 -19 35 -26 35 -16 0 -16
1 -3 -37 6 -17 22 -36 35 -43 24 -13 62 -60 49 -60 -4 0 11 -12 32 -27 51 -35
127 -46 171 -25 27 13 37 13 57 2 13 -7 35 -10 48 -7 18 5 376 8 563 6 17 -1
114 -1 218 0 103 0 199 -4 213 -9 17 -7 32 -7 45 0 23 13 61 -4 57 -25 -5 -23
16 -19 27 4 7 16 15 20 30 15 11 -4 40 -6 65 -4 94 6 202 0 217 -12 7 -6 19
-4 32 4 16 10 26 9 54 -4 24 -11 45 -14 73 -9 53 10 60 15 69 48 8 34 19 41
51 35 24 -4 24 -5 8 -23 -13 -15 -14 -19 -3 -19 10 -1 9 -4 -3 -11 -22 -12
-23 -29 -3 -29 8 0 15 5 15 10 0 6 5 10 11 10 7 0 18 8 25 18 13 16 13 16 14
0 0 -30 29 -19 49 19 15 30 14 46 -4 39 -8 -3 -15 -1 -15 5 0 7 12 8 30 4 23
-5 30 -3 30 9 0 8 -5 18 -11 21 -7 5 -6 12 3 23 25 30 38 70 25 75 -8 3 -6 10
7 19 14 11 17 22 12 41 -7 29 -33 36 -54 15 -9 -9 -12 -7 -12 10 0 13 -6 22
-15 22 -25 0 -17 27 11 34 32 8 31 49 -2 54 -16 2 -20 8 -16 27 2 13 11 26 19
29 11 4 13 1 8 -14 -8 -25 9 -26 35 -2 12 11 18 27 15 40 -2 15 1 22 11 22 8
0 12 4 9 10 -3 6 -18 10 -32 10 -22 0 -24 3 -19 24 4 16 1 26 -9 30 -23 9 -18
21 15 33 22 8 30 18 30 35 0 33 -11 44 -45 46 -37 3 -56 19 -36 32 12 7 12 11
2 24 -8 9 -17 16 -22 16 -4 0 -20 12 -34 26 -14 14 -32 23 -40 20 -8 -3 -15 2
-17 12 -2 12 -23 19 -83 28 -43 7 -84 10 -89 6 -13 -8 -106 -10 -101 -2 2 3
-42 6 -98 7 -56 0 -156 4 -222 8 -180 11 -298 9 -322 -3 -16 -9 -27 -9 -47 1
-18 10 -67 13 -178 11 -84 -2 -214 -4 -288 -5 -74 -2 -144 1 -156 4 -11 4 -23
4 -27 1z m1492 -118 c-9 -8 -10 -7 -5 7 3 10 7 26 7 35 1 9 4 6 6 -7 3 -13 -1
-28 -8 -35z m-1645 -11 c-4 -8 -10 -15 -15 -15 -5 0 -9 7 -9 15 0 8 7 15 15
15 9 0 12 -6 9 -15z m559 -11 c-3 -8 -9 -14 -15 -14 -5 0 -6 5 -3 10 3 6 -2
10 -12 10 -14 0 -15 2 -4 9 19 12 41 3 34 -15z m1122 16 c3 -5 1 -10 -4 -10
-6 0 -11 5 -11 10 0 6 2 10 4 10 3 0 8 -4 11 -10z m100 -10 c3 -5 1 -10 -4
-10 -6 0 -11 5 -11 10 0 6 2 10 4 10 3 0 8 -4 11 -10z m-45 -4 c0 -2 -7 -7
-16 -10 -8 -3 -12 -2 -9 4 6 10 25 14 25 6z m-35 -56 c3 -5 2 -10 -4 -10 -5 0
-13 5 -16 10 -3 6 -2 10 4 10 5 0 13 -4 16 -10z m-60 -9 c3 -5 1 -12 -5 -16
-5 -3 -10 1 -10 9 0 18 6 21 15 7z m125 5 c0 -3 -4 -8 -10 -11 -5 -3 -10 -1
-10 4 0 6 5 11 10 11 6 0 10 -2 10 -4z m140 -26 c0 -23 -6 -27 -45 -31 -22 -3
-31 0 -33 14 -2 10 3 17 13 17 9 0 14 4 11 8 -3 5 8 9 24 10 23 0 30 -4 30
-18z m-196 -4 c-3 -8 -12 -12 -20 -9 -21 8 -17 23 6 23 13 0 18 -5 14 -14z
m96 -52 c0 -8 -4 -12 -10 -9 -5 3 -10 10 -10 16 0 5 5 9 10 9 6 0 10 -7 10
-16z m56 -21 c7 6 34 -17 34 -28 0 -3 -9 -4 -19 0 -11 3 -22 1 -26 -5 -8 -13
-55 -13 -55 0 0 6 -7 10 -16 8 -10 -2 -19 3 -21 10 -3 8 3 11 18 9 13 -2 25
-9 27 -15 4 -14 42 -16 42 -3 0 6 -4 13 -10 16 -5 3 -10 11 -10 17 0 6 6 6 15
-2 9 -7 18 -10 21 -7z m-219 -9 c-3 -3 -12 -4 -19 -1 -8 3 -5 6 6 6 11 1 17
-2 13 -5z m248 -44 c-3 -5 -14 -10 -23 -10 -15 0 -15 2 -2 10 20 13 33 13 25
0z m-140 -20 c3 -5 -3 -10 -15 -10 -12 0 -18 5 -15 10 3 6 10 10 15 10 5 0 12
-4 15 -10z m-28 -64 c-4 -11 -57 -18 -57 -7 0 14 11 19 36 17 13 0 23 -5 21
-10z m-1667 -30 c0 -3 -4 -8 -10 -11 -5 -3 -10 -1 -10 4 0 6 5 11 10 11 6 0
10 -2 10 -4z m1650 -17 c0 -4 6 -6 13 -3 8 3 18 -6 25 -21 10 -21 9 -25 -4
-25 -10 0 -14 6 -10 15 5 14 -6 19 -41 18 -7 -1 -13 8 -13 18 0 12 5 16 15 13
8 -4 15 -10 15 -15z m-144 -36 c-10 -10 -19 5 -10 18 6 11 8 11 12 0 2 -7 1
-15 -2 -18z m139 -103 c2 -21 -10 -27 -20 -10 -8 13 3 45 12 36 4 -3 7 -15 8
-26z m215 -17 c-1 -10 -12 -31 -26 -48 -24 -29 -25 -29 -36 -10 -16 27 -19 45
-6 45 5 0 16 7 24 15 21 20 44 19 44 -2z m-1872 -20 c-2 -9 -10 -18 -18 -20
-12 -4 -13 -3 -1 5 7 5 10 15 7 21 -4 6 -2 11 4 11 6 0 10 -8 8 -17z m-144
-58 c-4 -8 -11 -12 -16 -9 -6 4 -5 10 3 15 19 12 19 11 13 -6z m73 -11 c-3 -3
-12 -4 -19 -1 -8 3 -5 6 6 6 11 1 17 -2 13 -5z m1896 -13 c8 -8 5 -11 -12 -11
-20 0 -21 -2 -11 -15 10 -12 9 -16 -6 -22 -11 -3 -22 -11 -25 -16 -4 -5 -12
-6 -18 -2 -9 5 -9 10 0 21 8 10 7 17 -5 30 -9 8 -14 20 -11 24 8 12 74 5 88
-9z m-2056 -43 c-3 -8 -6 -5 -6 6 -1 11 2 17 5 13 3 -3 4 -12 1 -19z m1853
-88 c0 -5 -4 -10 -10 -10 -5 0 -10 5 -10 10 0 6 5 10 10 10 6 0 10 -4 10 -10z"/>
<path d="M410 1000 c0 -5 5 -10 11 -10 5 0 7 5 4 10 -3 6 -8 10 -11 10 -2 0
-4 -4 -4 -10z"/>
<path d="M3428 985 c-3 -3 -127 -6 -277 -6 -253 -1 -273 -3 -296 -21 -14 -11
-25 -14 -25 -8 0 10 -36 6 -48 -5 -4 -3 -10 -33 -11 -52 -1 -7 -8 -13 -16 -13
-17 0 -20 -26 -4 -35 15 -10 -29 -55 -47 -48 -8 3 -14 0 -14 -6 0 -6 4 -11 9
-11 5 0 11 -9 14 -20 4 -14 -5 -28 -31 -50 -38 -31 -54 -31 -51 3 2 38 -1 40
-21 14 -20 -25 -28 -73 -11 -62 21 13 23 -19 2 -36 -18 -15 -20 -22 -12 -37
10 -19 32 -32 52 -32 16 0 9 18 -8 22 -10 3 -1 6 20 9 29 4 36 2 32 -9 -3 -7
-5 -23 -5 -33 0 -11 -4 -18 -10 -14 -5 3 -18 -2 -29 -12 -15 -12 -18 -20 -9
-30 13 -16 35 -17 42 0 3 6 3 1 0 -13 -10 -38 -41 -63 -35 -27 1 5 -4 7 -11 4
-7 -2 -12 -10 -10 -16 1 -7 -6 -11 -17 -9 -11 2 -20 -1 -21 -7 0 -5 8 -11 20
-13 11 -2 20 -10 20 -18 0 -8 7 -14 15 -14 9 0 12 6 9 15 -4 8 -1 15 5 15 6 0
11 -7 11 -16 0 -9 6 -14 13 -11 6 2 12 10 12 17 0 19 22 24 28 5 4 -8 2 -15
-3 -15 -6 0 -10 -7 -10 -16 0 -9 -9 -18 -21 -21 -13 -4 -19 -12 -16 -23 3 -11
-6 -22 -27 -34 -34 -18 -41 -52 -18 -94 7 -12 10 -27 7 -32 -3 -6 1 -10 9 -10
8 0 19 -6 23 -14 18 -31 50 -34 290 -31 133 1 246 6 252 9 6 4 11 14 11 22 0
8 5 14 11 14 6 0 8 -7 5 -16 -5 -13 -1 -15 18 -10 16 4 26 1 29 -8 4 -10 24
-13 79 -11 40 2 73 4 73 5 0 5 105 2 123 -4 28 -9 57 10 42 29 -7 8 -5 12 5
12 8 0 15 -6 15 -14 0 -7 6 -13 13 -14 85 -6 104 -6 117 2 12 7 11 10 -7 15
-13 3 -20 11 -17 16 3 5 12 7 20 4 18 -7 28 11 12 21 -7 4 -20 17 -28 27 -14
18 -13 19 8 14 13 -4 36 1 54 10 23 13 32 14 35 5 11 -29 20 -9 22 46 1 34 -3
62 -9 66 -17 11 -60 -23 -60 -48 0 -17 -2 -19 -10 -7 -5 8 -12 11 -16 7 -4 -4
-2 -13 4 -19 19 -19 14 -28 -14 -28 -21 0 -25 4 -22 22 2 13 15 28 29 35 38
18 64 60 48 79 -9 11 -8 14 4 14 10 0 14 6 11 13 -3 8 2 20 10 27 24 19 9 30
-24 17 -18 -7 -28 -17 -26 -24 3 -7 -1 -13 -9 -13 -8 0 -15 5 -15 10 0 6 -6
10 -14 10 -7 0 -19 7 -27 16 -10 13 -10 17 2 25 11 7 11 9 0 9 -11 0 -11 3 -1
15 16 19 0 40 -38 50 l-27 8 30 8 c24 7 33 5 42 -9 23 -33 47 -52 62 -50 9 2
15 -2 14 -8 -1 -7 7 -14 17 -17 11 -3 20 -1 20 4 0 5 -5 9 -12 9 -6 0 -2 11
11 23 13 15 19 30 15 40 -8 21 -20 22 -28 2 -3 -8 -10 -15 -16 -15 -6 0 -8 5
-4 11 5 8 -1 10 -19 7 -20 -4 -28 0 -33 14 -8 27 3 35 28 19 19 -12 23 -11 35
4 9 13 10 22 2 31 -7 9 -5 13 11 16 19 3 20 5 6 23 -13 17 -18 18 -36 7 -25
-15 -50 -1 -50 28 0 25 10 31 32 19 11 -6 33 -7 49 -4 l30 7 -23 18 c-13 10
-32 20 -43 23 -18 4 -18 5 3 6 12 0 22 5 22 11 0 5 -12 7 -27 5 -21 -4 -37 2
-63 25 -34 30 -34 30 -7 20 36 -13 47 -6 48 28 1 21 2 23 6 7 3 -11 10 -25 15
-32 5 -7 7 -17 3 -23 -3 -5 1 -10 9 -10 9 0 16 7 16 15 0 19 20 19 48 -1 13
-9 22 -11 22 -4 0 15 -50 60 -66 60 -7 0 -19 10 -25 22 -9 17 -9 24 5 33 14
11 14 14 2 24 -11 9 -15 9 -18 -1 -4 -10 -14 -10 -54 -1 -27 7 -98 13 -158 13
-59 0 -112 2 -116 5 -4 2 -9 2 -12 0z m152 -104 c0 -13 -8 -21 -22 -23 -17 -2
-22 -9 -20 -22 3 -17 2 -18 -12 -7 -14 12 -12 17 17 42 38 34 37 34 37 10z
m-680 -37 c0 -8 -4 -12 -10 -9 -5 3 -10 13 -10 21 0 8 5 12 10 9 6 -3 10 -13
10 -21z m697 -20 c-3 -3 -12 -4 -19 -1 -8 3 -5 6 6 6 11 1 17 -2 13 -5z m107
-36 c-4 -6 0 -15 7 -20 11 -8 10 -8 -4 -4 -10 3 -30 6 -43 6 -13 0 -24 5 -24
10 0 6 7 10 15 10 8 0 15 4 15 9 0 5 9 7 20 4 11 -3 17 -10 14 -15z m-4 -47
c0 -5 -9 -12 -19 -16 -12 -4 -18 -12 -14 -21 3 -7 0 -14 -5 -14 -22 0 -22 19
0 39 23 22 38 27 38 12z m-850 -22 c0 -5 -11 -8 -25 -7 -24 2 -31 9 -19 20 8
8 44 -3 44 -13z m890 -33 c0 -3 -4 -8 -10 -11 -5 -3 -10 -1 -10 4 0 6 5 11 10
11 6 0 10 -2 10 -4z m-52 -17 c-2 -6 -8 -10 -13 -10 -5 0 -11 4 -13 10 -2 6 4
11 13 11 9 0 15 -5 13 -11z m57 -19 c3 -5 1 -10 -4 -10 -6 0 -11 5 -11 10 0 6
2 10 4 10 3 0 8 -4 11 -10z m-1015 -26 c0 -2 -9 -4 -20 -4 -11 0 -20 4 -20 9
0 5 9 7 20 4 11 -3 20 -7 20 -9z m35 6 c3 -6 -1 -7 -9 -4 -18 7 -21 14 -7 14
6 0 13 -4 16 -10z m945 -9 c0 -6 -4 -13 -10 -16 -5 -3 -10 1 -10 9 0 9 5 16
10 16 6 0 10 -4 10 -9z m-178 -143 c-7 -7 -12 -8 -12 -2 0 14 12 26 19 19 2
-3 -1 -11 -7 -17z m118 1 c0 -5 -9 -9 -20 -9 -19 0 -26 11 -14 23 8 8 34 -3
34 -14z m-48 -15 c9 -3 19 -12 22 -19 7 -19 -22 -7 -49 18 -12 12 -14 17 -5
13 8 -3 23 -9 32 -12z m-852 -18 c0 -3 -4 -8 -10 -11 -5 -3 -10 -1 -10 4 0 6
5 11 10 11 6 0 10 -2 10 -4z m962 -15 c-6 -3 -10 -15 -9 -26 1 -11 -5 -21 -15
-23 -14 -3 -17 8 -9 36 1 1 1 5 0 8 -1 11 24 23 34 17 5 -3 5 -8 -1 -12z m28
-26 c0 -8 -2 -15 -4 -15 -2 0 -6 7 -10 15 -3 8 -1 15 4 15 6 0 10 -7 10 -15z
m-670 -5 c0 -5 -4 -10 -10 -10 -5 0 -10 5 -10 10 0 6 5 10 10 10 6 0 10 -4 10
-10z m-322 -65 c-3 -3 -9 2 -12 12 -6 14 -5 15 5 6 7 -7 10 -15 7 -18z m-46
-26 c-23 -9 -27 -3 -12 16 11 13 15 13 21 3 5 -8 2 -15 -9 -19z m568 -21 c0
-16 -3 -19 -11 -11 -6 6 -8 16 -5 22 11 17 16 13 16 -11z m-340 -34 c0 -11 -5
-14 -16 -10 -9 3 -18 6 -20 6 -3 0 -2 5 1 10 10 16 35 12 35 -6z m715 -5 c12
-19 -5 -23 -22 -6 -16 16 -16 17 -1 17 9 0 20 -5 23 -11z m-49 -46 c-7 -7 -26
7 -26 19 0 6 6 6 15 -2 9 -7 13 -15 11 -17z m-849 -8 c6 -14 8 -25 4 -25 -4 0
-13 11 -19 25 -6 14 -8 25 -4 25 4 0 12 -11 19 -25z m-87 11 c0 -3 -4 -8 -10
-11 -5 -3 -10 -1 -10 4 0 6 5 11 10 11 6 0 10 -2 10 -4z m159 -27 c6 10 10 8
15 -5 4 -11 1 -21 -8 -26 -24 -13 -30 -10 -38 18 -6 22 -5 24 8 13 13 -10 17
-10 23 0z"/>
<path d="M2400 970 c0 -5 5 -10 10 -10 6 0 10 5 10 10 0 6 -4 10 -10 10 -5 0
-10 -4 -10 -10z"/>
<path d="M2642 789 c2 -7 10 -15 17 -17 8 -3 12 1 9 9 -2 7 -10 15 -17 17 -8
3 -12 -1 -9 -9z"/>
<path d="M2553 755 c-19 -13 -20 -19 -11 -45 14 -40 28 -38 28 5 0 28 3 33 16
28 11 -4 15 -2 12 7 -6 20 -21 22 -45 5z"/>
<path d="M325 690 c-3 -5 -1 -10 4 -10 6 0 11 5 11 10 0 6 -2 10 -4 10 -3 0
-8 -4 -11 -10z"/>
<path d="M285 680 c-3 -5 1 -10 10 -10 9 0 13 5 10 10 -3 6 -8 10 -10 10 -2 0
-7 -4 -10 -10z"/>
<path d="M275 580 c-3 -5 1 -10 9 -10 9 0 16 5 16 10 0 6 -4 10 -9 10 -6 0
-13 -4 -16 -10z"/>
<path d="M322 579 c2 -6 8 -10 13 -10 5 0 11 4 13 10 2 6 -4 11 -13 11 -9 0
-15 -5 -13 -11z"/>
<path d="M3844 571 c3 -5 15 -7 26 -4 28 7 25 13 -6 13 -14 0 -23 -4 -20 -9z"/>
<path d="M297 553 c-3 -5 -2 -15 2 -22 7 -10 10 -10 16 -1 4 6 3 16 -3 22 -5
5 -12 6 -15 1z"/>
<path d="M170 520 c0 -5 5 -10 11 -10 5 0 7 5 4 10 -3 6 -8 10 -11 10 -2 0 -4
-4 -4 -10z"/>
<path d="M320 520 c0 -5 5 -10 10 -10 6 0 10 5 10 10 0 6 -4 10 -10 10 -5 0
-10 -4 -10 -10z"/>
<path d="M3843 513 c-15 -5 -17 -23 -4 -23 5 0 11 7 15 15 3 8 4 15 3 14 -1 0
-8 -3 -14 -6z"/>
<path d="M175 491 c-3 -5 -1 -12 5 -16 17 -11 11 -22 -12 -21 -17 1 -24 -5
-26 -21 -3 -18 0 -22 14 -16 13 5 15 3 9 -7 -6 -10 -4 -11 6 -4 8 5 16 9 19 9
39 5 68 35 34 35 -12 0 -15 6 -10 25 5 20 3 25 -13 25 -11 0 -22 -4 -26 -9z"/>
<path d="M320 420 c0 -5 5 -10 10 -10 6 0 10 5 10 10 0 6 -4 10 -10 10 -5 0
-10 -4 -10 -10z"/>
<path d="M380 420 c0 -5 5 -10 10 -10 6 0 10 5 10 10 0 6 -4 10 -10 10 -5 0
-10 -4 -10 -10z"/>
<path d="M339 394 c-11 -14 -10 -16 9 -12 13 1 23 7 23 13 1 17 -17 16 -32 -1z"/>
<path d="M248 373 c7 -3 16 -2 19 1 4 3 -2 6 -13 5 -11 0 -14 -3 -6 -6z"/>
<path d="M2620 334 c0 -8 5 -12 10 -9 6 3 10 10 10 16 0 5 -4 9 -10 9 -5 0
-10 -7 -10 -16z"/>
<path d="M3910 319 c0 -5 5 -7 10 -4 6 3 10 8 10 11 0 2 -4 4 -10 4 -5 0 -10
-5 -10 -11z"/>
<path d="M3870 251 c-15 -4 -20 -10 -13 -14 13 -8 43 1 43 14 0 5 -1 9 -2 8
-2 -1 -14 -4 -28 -8z"/>
<path d="M3910 233 c0 -5 5 -15 10 -23 8 -12 10 -11 10 8 0 12 -4 22 -10 22
-5 0 -10 -3 -10 -7z"/>
<path d="M3795 203 c-16 -16 -16 -17 1 -30 25 -18 44 -16 44 5 0 10 5 23 12
30 9 9 6 12 -14 12 -15 0 -34 -8 -43 -17z"/>
</g>
</svg>
