<?xml version="1.0" standalone="no"?>
<!DOCTYPE svg PUBLIC "-//W3C//DTD SVG 20010904//EN"
 "http://www.w3.org/TR/2001/REC-SVG-20010904/DTD/svg10.dtd">
<svg version="1.0" xmlns="http://www.w3.org/2000/svg"
 width="417.000000pt" height="325.000000pt" viewBox="0 0 417.000000 325.000000"
 preserveAspectRatio="xMidYMid meet">

<g transform="translate(0.000000,325.000000) scale(0.100000,-0.100000)"
fill="#000000" stroke="none">
<path d="M0 1625 l0 -1625 2085 0 2085 0 0 1625 0 1625 -2085 0 -2085 0 0
-1625z m2318 1451 c13 -4 22 -15 22 -27 0 -10 4 -19 9 -19 5 0 16 -3 25 -6 22
-8 20 15 -1 33 -17 14 -17 14 2 10 11 -2 27 2 34 10 9 10 24 13 45 9 17 -3 94
-6 171 -5 237 0 359 -2 381 -7 12 -3 24 -2 27 3 5 8 223 8 337 -1 38 -2 70 0
77 6 7 6 27 8 45 5 80 -13 144 -31 153 -44 7 -8 15 -9 24 -4 12 7 12 13 3 24
-7 7 -9 17 -5 20 13 14 33 6 69 -29 31 -28 35 -37 24 -44 -9 -6 -16 -6 -18 0
-2 6 -12 14 -21 20 -32 16 -12 -40 20 -59 31 -19 29 -31 -7 -31 -12 0 -22 -6
-21 -12 1 -33 -4 -49 -15 -47 -33 4 -41 -1 -28 -17 8 -8 15 -28 17 -44 3 -28
1 -29 -23 -20 -32 12 -34 12 -34 0 0 -5 7 -10 15 -10 9 0 12 -6 9 -15 -7 -17
11 -21 21 -5 11 17 23 11 29 -15 4 -14 11 -23 16 -20 6 3 10 -1 10 -9 0 -9 6
-16 13 -16 14 0 14 -51 0 -90 -13 -35 -5 -60 18 -60 20 0 26 -24 9 -35 -5 -3
-10 -1 -10 5 0 6 -10 10 -22 8 -15 -2 -22 3 -25 17 -1 11 -6 36 -9 55 -6 35
-48 79 -62 65 -4 -4 1 -12 11 -19 19 -14 23 -36 7 -36 -19 0 -10 -18 12 -23
18 -5 19 -8 8 -21 -10 -13 -10 -16 2 -16 10 0 14 -8 13 -24 -2 -14 3 -27 11
-30 8 -3 14 -11 14 -18 0 -7 7 -26 15 -42 11 -21 13 -32 5 -40 -8 -8 -9 -6 -4
8 6 15 4 17 -14 12 -16 -5 -25 -1 -38 19 -9 14 -19 23 -22 20 -5 -5 -11 -41
-13 -77 0 -9 -7 -22 -15 -29 -8 -6 -14 -17 -14 -23 0 -6 4 -4 10 4 5 8 12 11
16 7 4 -3 1 -13 -5 -21 -7 -8 -10 -20 -7 -25 4 -5 2 -12 -4 -16 -6 -4 -8 -11
-4 -16 7 -13 -14 -39 -32 -39 -8 0 -14 9 -14 20 0 11 -4 20 -10 20 -9 0 -14
-14 -11 -32 1 -9 -2 -10 -94 -14 -201 -8 -528 -5 -537 4 -7 7 -18 8 -27 3 -23
-12 -184 -11 -198 1 -9 7 -13 7 -13 -2 0 -8 -32 -11 -117 -10 -65 1 -126 -1
-135 -5 -18 -7 -94 -2 -140 10 -15 4 -36 4 -45 -1 -20 -9 -333 -12 -333 -3 0
3 -13 4 -29 1 -16 -2 -32 1 -35 7 -10 15 -43 14 -50 -1 -5 -10 -7 -10 -12 0
-3 6 -19 12 -35 12 -22 0 -29 5 -29 20 0 24 15 27 24 4 3 -8 11 -12 17 -9 6 4
8 14 5 22 -3 8 -1 23 4 34 9 16 8 18 -12 15 -20 -3 -65 20 -93 49 -6 5 -11 21
-12 34 l-2 24 28 -27 c28 -27 51 -34 51 -15 0 7 10 9 25 5 19 -5 25 -2 25 10
0 12 -6 15 -24 10 -49 -12 -73 18 -41 51 9 9 13 23 10 34 -4 11 -2 19 5 19 6
0 8 5 5 10 -5 8 -11 7 -21 -1 -7 -6 -11 -16 -7 -21 3 -6 0 -8 -8 -6 -8 3 -13
12 -11 22 2 10 -4 16 -16 16 -31 0 -36 41 -9 62 29 23 37 22 34 -4 -1 -14 4
-23 16 -26 12 -2 17 3 17 17 0 12 -4 21 -10 21 -5 0 -10 6 -10 14 0 7 -9 16
-21 19 -28 7 -19 31 12 32 13 0 25 4 26 9 1 5 6 12 11 15 7 4 5 13 -3 24 -11
16 -16 16 -34 6 -26 -17 -38 -5 -17 16 23 24 8 40 -16 18 -19 -17 -20 -17 -34
2 -20 27 -17 43 8 51 20 6 21 7 4 19 -11 8 -13 15 -7 20 6 3 11 17 11 30 0 13
5 27 10 30 8 5 7 12 -2 22 -10 12 -9 17 5 28 12 8 16 21 13 39 -5 28 -3 30 37
40 19 4 26 3 22 -4 -10 -16 4 -12 37 11 25 18 48 23 128 26 62 3 101 0 105 -6
3 -6 11 -11 16 -11 6 0 8 4 4 9 -10 17 236 22 283 7z m-1511 -28 c9 -7 13 -7
13 0 0 14 65 27 81 16 7 -4 43 -6 79 -4 70 3 98 3 219 0 62 -1 79 -5 75 -15
-5 -11 2 -11 35 1 46 16 71 10 71 -17 0 -10 5 -19 11 -19 6 0 8 7 5 16 -3 8
-2 13 3 10 5 -3 12 1 15 9 4 12 15 14 48 9 51 -8 81 -30 55 -40 -10 -3 -23 -1
-31 5 -19 16 -28 1 -9 -17 14 -15 13 -17 -13 -24 -16 -4 -34 -6 -41 -3 -16 5
-27 -12 -13 -20 18 -11 -10 -36 -31 -30 -11 4 -19 2 -19 -4 0 -6 7 -11 15 -11
8 0 15 -9 15 -20 0 -11 -7 -23 -15 -26 -22 -9 -19 -51 5 -64 28 -15 25 -33 -5
-28 -30 6 -33 -12 -5 -30 11 -7 20 -19 20 -27 0 -27 17 -16 48 31 27 42 31 44
37 25 3 -11 3 -26 -1 -32 -3 -6 -2 -14 4 -18 7 -4 5 -13 -4 -26 -12 -17 -17
-18 -35 -7 -16 10 -22 10 -35 -3 -9 -8 -19 -15 -24 -15 -17 0 -17 -28 1 -65
23 -47 24 -59 3 -51 -12 5 -15 2 -10 -10 3 -8 6 -20 6 -26 0 -6 7 -8 15 -4 16
6 58 -28 47 -38 -3 -3 2 -6 11 -6 9 0 17 -4 17 -10 0 -5 -5 -10 -11 -10 -5 0
-8 -4 -4 -9 7 -13 58 -7 63 8 5 14 39 14 48 0 4 -8 -1 -9 -17 -5 -23 7 -23 7
-5 -8 19 -16 19 -16 -5 -18 -13 0 -30 -2 -37 -2 -8 -1 -18 -10 -24 -21 -13
-25 -50 -55 -60 -49 -13 8 -9 42 5 47 6 3 7 6 1 6 -5 1 -19 -6 -30 -14 -17
-13 -17 -16 -3 -27 8 -7 18 -21 22 -30 8 -22 27 -24 27 -3 0 9 11 20 25 25 16
6 25 17 25 31 0 12 5 19 13 16 6 -2 11 -12 11 -21 -1 -9 4 -16 12 -16 7 0 11
-6 8 -13 -3 -8 2 -19 10 -26 18 -15 9 -51 -14 -51 -10 0 -27 -3 -37 -7 -17 -6
-17 -5 -1 13 16 19 16 22 1 43 -14 21 -17 22 -25 7 -5 -9 -12 -29 -14 -44 -3
-15 -13 -34 -24 -43 -10 -9 -17 -19 -14 -22 3 -3 -9 -8 -26 -12 -18 -4 -36 -3
-42 3 -7 7 -19 7 -35 1 -14 -5 -57 -10 -95 -12 -63 -2 -71 0 -88 23 -15 19
-20 21 -20 8 0 -9 -8 -19 -17 -21 -52 -15 -97 -17 -134 -7 -28 8 -44 8 -53 1
-9 -7 -41 -8 -97 -2 -52 5 -92 4 -106 -2 -14 -6 -32 -6 -53 2 -18 6 -36 8 -41
5 -15 -9 -48 6 -43 20 3 9 -10 18 -40 27 -32 9 -46 19 -46 31 0 22 27 24 32 3
2 -13 5 -12 15 4 11 17 10 19 -2 15 -8 -4 -15 -1 -15 5 0 6 -8 11 -17 11 -20
0 -53 -28 -53 -47 0 -7 -7 -13 -15 -13 -18 0 -20 -16 -2 -23 7 -3 6 -6 -5 -6
-10 -1 -18 8 -20 21 -2 14 -12 24 -28 28 l-25 6 22 12 c12 7 33 12 47 12 16 0
26 6 26 15 0 8 14 18 33 23 17 4 32 15 32 23 0 8 5 17 12 21 16 11 6 40 -23
61 -22 17 -25 17 -49 1 -14 -9 -25 -23 -25 -31 0 -24 -25 -8 -28 18 -2 20 3
27 34 38 33 12 36 15 21 26 -25 18 -21 25 13 25 17 0 30 5 30 10 0 9 -47 4
-59 -6 -1 -1 -14 1 -27 6 -18 7 -22 6 -18 -4 3 -9 -5 -15 -25 -18 -17 -3 -33
-2 -36 0 -9 9 45 51 58 46 7 -2 24 7 37 21 21 22 22 29 12 46 -12 19 -2 59 16
59 4 0 9 10 9 22 1 13 -1 18 -5 11 -9 -14 -62 -12 -62 2 0 6 5 16 11 22 8 8 0
13 -30 18 -23 4 -41 11 -41 17 0 6 13 7 32 2 29 -6 31 -5 19 10 -21 25 13 32
55 12 45 -21 44 -21 34 14 -8 27 -6 30 13 30 16 0 18 3 9 9 -8 4 -12 17 -10
27 2 12 -5 22 -19 29 -26 11 -30 25 -7 25 8 0 13 4 10 9 -3 5 -14 7 -25 4 -21
-5 -35 20 -26 47 4 12 -1 19 -15 23 -23 6 -27 27 -5 27 8 0 15 -5 15 -11 0 -8
5 -7 16 2 9 7 34 16 57 19 64 9 310 0 324 -12z m-396 -133 c0 -16 -61 -25 -61
-9 0 7 10 15 23 17 29 5 39 4 38 -8z m1049 -3 c0 -5 -14 -9 -30 -10 -17 0 -28
4 -25 9 8 11 55 12 55 1z m-1000 -17 c0 -8 -5 -15 -11 -15 -6 0 -8 -9 -4 -20
3 -11 5 -20 3 -20 -2 0 -22 6 -46 13 l-43 13 38 21 c46 26 63 28 63 8z m3282
-27 c-6 -6 -15 -8 -19 -4 -4 4 -1 11 7 16 19 12 27 3 12 -12z m-2272 2 c0 -5
-9 -10 -19 -10 -11 0 -28 -3 -38 -6 -16 -5 -16 -4 1 10 22 18 56 21 56 6z
m2257 -26 c-3 -3 -12 -4 -19 -1 -8 3 -5 6 6 6 11 1 17 -2 13 -5z m-2308 -20
c2 -2 2 -6 0 -9 -8 -7 -49 7 -49 17 0 8 38 2 49 -8z m2367 -53 c-17 -7 -17 -8
-2 -24 20 -20 17 -21 -21 -6 -27 10 -27 11 -9 25 11 8 27 14 35 13 12 0 11 -2
-3 -8z m-2381 -22 c12 -19 -5 -23 -22 -6 -16 16 -16 17 -1 17 9 0 20 -5 23
-11z m-1062 -64 c-5 -13 -23 -22 -23 -11 0 15 14 35 21 31 4 -3 6 -12 2 -20z
m1167 -45 c0 -29 -2 -30 -46 -30 -36 0 -44 -3 -36 -12 15 -20 25 -78 13 -78
-6 0 -11 10 -11 22 0 12 -6 29 -13 37 -18 22 -38 71 -29 72 4 1 24 2 44 3 21
1 41 5 44 9 17 17 34 5 34 -23z m-1120 16 c0 -11 -19 -15 -25 -6 -3 5 1 10 9
10 9 0 16 -2 16 -4z m1167 -8 c-2 -7 3 -19 12 -25 14 -11 14 -14 1 -22 -11 -7
-19 -3 -32 16 -9 15 -15 30 -12 35 8 13 36 9 31 -4z m-1172 -28 c3 -5 -1 -10
-9 -10 -9 0 -16 5 -16 10 0 6 4 10 9 10 6 0 13 -4 16 -10z m15 -29 c0 -17 -18
-21 -24 -6 -3 9 0 15 9 15 8 0 15 -4 15 -9z m1100 -56 c0 -8 -4 -15 -9 -15
-13 0 -22 16 -14 24 11 11 23 6 23 -9z m80 2 c0 -7 -17 -19 -37 -27 -21 -8
-41 -16 -45 -18 -5 -2 -8 1 -8 7 0 10 65 50 83 51 4 0 7 -6 7 -13z m-1210
-125 c0 -13 -12 -22 -22 -16 -10 6 -1 24 13 24 5 0 9 -4 9 -8z m3360 -132 c0
-5 -4 -10 -9 -10 -6 0 -13 5 -16 10 -3 6 1 10 9 10 9 0 16 -4 16 -10z m-2250
-40 c0 -5 -4 -10 -10 -10 -5 0 -10 5 -10 10 0 6 5 10 10 10 6 0 10 -4 10 -10z
m-940 -26 c0 -8 -4 -12 -10 -9 -5 3 -10 10 -10 16 0 5 5 9 10 9 6 0 10 -7 10
-16z m152 -178 c11 -11 17 -11 31 -1 21 15 258 12 330 -4 40 -9 54 -9 79 4 17
8 35 12 40 9 5 -3 82 -5 171 -4 89 1 169 2 177 1 24 -1 422 -2 573 -2 76 1
147 -4 157 -9 22 -12 41 -13 23 -2 -6 4 30 8 80 10 340 9 490 10 516 2 18 -5
43 -4 64 2 47 14 170 1 163 -17 -2 -7 2 -16 10 -19 8 -3 14 -1 14 5 0 6 5 9
11 7 6 -2 10 -7 9 -11 0 -4 19 -23 42 -41 l43 -33 24 26 c18 19 23 21 18 8 -5
-13 -3 -17 5 -15 21 7 21 38 1 53 -10 7 -15 17 -11 21 4 4 14 2 21 -4 10 -9
18 -8 33 3 22 16 119 21 109 5 -3 -5 -1 -10 4 -10 6 0 11 4 11 9 0 6 36 10 80
9 58 0 80 -4 80 -13 0 -17 35 -26 49 -12 6 6 11 7 11 3 0 -5 7 -3 15 4 12 10
18 9 31 -4 20 -21 11 -34 -11 -16 -9 7 -18 10 -21 8 -10 -11 8 -58 23 -58 8 0
11 -5 8 -11 -4 -6 2 -13 12 -15 10 -3 24 -13 30 -23 9 -14 7 -17 -9 -18 -11
-1 -22 -4 -25 -7 -9 -8 18 -76 30 -76 7 0 -1 -11 -18 -25 -16 -13 -37 -22 -47
-19 -18 5 -33 -11 -23 -26 4 -7 13 -7 26 0 16 9 21 7 28 -12 10 -27 5 -36 -11
-20 -13 13 -58 16 -58 5 0 -5 -3 -18 -6 -30 -5 -17 -2 -23 9 -23 8 0 18 -7 21
-16 4 -10 13 -13 27 -9 15 5 19 4 15 -4 -4 -6 -15 -11 -24 -11 -13 0 -12 -3 6
-16 12 -8 22 -20 22 -26 0 -7 -6 -6 -15 2 -10 9 -15 9 -15 1 0 -6 -16 -11 -35
-11 -38 0 -40 -2 -25 -30 9 -16 6 -18 -28 -13 -27 4 -42 1 -51 -10 -11 -14 -7
-16 38 -15 29 1 56 7 62 15 15 17 38 17 45 -2 4 -8 13 -15 21 -15 8 0 21 7 29
15 17 17 49 21 39 5 -4 -6 -11 -8 -16 -5 -5 4 -9 2 -9 -4 0 -6 -9 -15 -20 -21
-17 -9 -32 -13 -95 -22 -11 -2 -19 2 -18 7 1 9 -21 11 -71 6 -9 -1 -12 -8 -9
-21 6 -24 16 -25 37 -5 8 9 17 11 21 6 3 -5 1 -12 -5 -16 -19 -12 -10 -24 18
-22 18 1 26 -2 24 -12 -2 -8 3 -11 13 -8 9 4 15 1 15 -9 0 -12 -6 -15 -25 -10
-18 5 -27 2 -32 -9 -3 -9 -12 -14 -19 -11 -16 6 -19 -21 -5 -43 10 -16 31 -6
31 14 0 20 22 24 47 7 13 -8 30 -12 38 -8 11 4 15 -1 15 -19 0 -17 6 -25 18
-26 13 0 14 -2 2 -6 -18 -7 -40 -35 -34 -44 6 -11 -58 -34 -93 -34 -38 0 -43
11 -10 25 18 8 15 9 -13 4 -19 -3 -42 -14 -51 -24 -17 -20 4 -19 -379 -20
-232 -1 -222 -1 -216 8 6 10 -52 8 -76 -3 -14 -6 -18 -2 -19 16 -2 24 -2 24
-6 2 -4 -23 -27 -31 -37 -15 -3 5 -27 5 -53 0 -26 -6 -63 -10 -80 -10 -18 0
-62 0 -98 0 -36 0 -77 0 -92 0 -16 0 -41 0 -58 1 -16 1 -79 1 -139 1 -65 0
-114 4 -122 11 -7 6 -18 8 -24 4 -12 -7 -56 -16 -80 -16 -8 0 -44 0 -80 1 -36
0 -153 0 -260 1 -263 1 -389 -1 -428 -6 -18 -3 -31 -1 -28 3 2 4 -21 6 -52 5
-31 -1 -136 -2 -232 -2 -181 0 -277 -1 -367 -1 -29 -1 -62 4 -72 10 -11 5 -30
10 -43 10 -20 -1 -36 1 -80 9 -17 2 -7 19 15 25 14 4 26 0 35 -11 10 -14 12
-14 12 -2 0 8 -5 20 -11 26 -8 8 -8 17 0 31 10 19 8 20 -29 15 -26 -4 -40 -2
-40 6 0 6 -6 11 -13 11 -8 0 -18 16 -24 35 -12 39 -6 45 20 15 17 -20 47 -27
47 -12 0 4 -5 13 -11 19 -9 9 -3 14 22 21 24 7 27 10 13 11 -23 1 -39 26 -28
43 3 5 15 8 25 5 28 -7 24 18 -6 37 -35 23 -32 39 6 31 29 -7 31 -5 26 14 -3
15 0 21 10 21 13 0 13 3 3 15 -7 8 -21 15 -31 15 -10 0 -34 7 -52 16 -30 14
-34 20 -28 43 5 16 15 26 26 26 23 0 31 21 15 40 -10 12 -9 15 3 15 18 0 30
27 16 36 -6 3 -9 15 -6 25 3 11 1 17 -4 13 -5 -3 -9 4 -9 14 0 15 5 19 20 15
14 -4 20 0 20 11 0 9 7 16 15 16 13 0 14 4 5 20 -15 28 -3 60 21 60 10 0 19 5
19 10 0 12 -27 13 -34 1 -3 -5 -21 -9 -40 -9 -19 0 -39 -3 -45 -7 -6 -3 -11 1
-11 9 0 9 -7 16 -15 16 -8 0 -15 9 -15 20 0 11 5 20 11 20 6 0 13 -9 16 -20 3
-11 11 -20 18 -20 18 0 58 38 51 49 -11 17 34 33 113 41 116 11 119 11 133 -4z
m2536 -41 c-1 -19 -4 -35 -7 -35 -13 0 -27 16 -25 28 1 6 2 19 3 27 0 8 8 15
16 15 10 0 14 -10 13 -35z m-2854 -130 c4 -11 -1 -15 -19 -15 -26 0 -34 15
-12 23 20 9 25 8 31 -8z m3414 -180 c-2 -9 -8 -12 -16 -6 -12 7 -12 12 0 30
10 17 14 18 16 6 2 -8 2 -22 0 -30z m-3395 10 c0 -6 -7 -11 -16 -13 -12 -3
-15 1 -11 13 7 17 25 17 27 0z m3354 -80 c0 -8 -4 -15 -9 -15 -4 0 -8 7 -8 15
0 8 4 15 8 15 5 0 9 -7 9 -15z m47 -60 c-4 -8 -8 -15 -10 -15 -2 0 -4 7 -4 15
0 8 4 15 10 15 5 0 7 -7 4 -15z m-4 -95 c0 -5 -5 -10 -11 -10 -5 0 -7 5 -4 10
3 6 8 10 11 10 2 0 4 -4 4 -10z m-115 -30 c3 -5 1 -10 -4 -10 -6 0 -11 5 -11
10 0 6 2 10 4 10 3 0 8 -4 11 -10z m85 -39 c13 -12 13 -13 0 -8 -22 6 -50 -11
-50 -31 -1 -14 -5 -12 -21 8 l-20 24 20 8 c12 4 24 15 28 23 5 13 8 14 17 3 6
-7 18 -19 26 -27z m40 -31 c0 -5 -5 -10 -11 -10 -5 0 -7 5 -4 10 3 6 8 10 11
10 2 0 4 -4 4 -10z m-40 -139 c0 -24 -70 -46 -80 -26 -3 6 6 12 20 13 14 2 29
8 35 13 12 11 25 12 25 0z m-2012 -182 c-2 -6 -8 -10 -13 -10 -5 0 -11 4 -13
10 -2 6 4 11 13 11 9 0 15 -5 13 -11z m-818 -20 c74 1 204 3 288 5 111 2 160
-1 178 -11 20 -10 31 -10 47 -1 24 12 142 14 322 3 66 -4 166 -8 222 -8 56 -1
100 -4 98 -7 -5 -8 88 -6 101 2 5 4 46 1 89 -6 60 -9 81 -16 83 -28 2 -10 9
-15 17 -12 8 3 26 -6 40 -20 14 -14 30 -26 34 -26 5 0 14 -7 22 -16 10 -13 10
-17 -2 -24 -20 -13 -1 -29 36 -32 34 -2 45 -13 45 -46 0 -17 -8 -27 -30 -35
-33 -12 -38 -24 -15 -33 10 -4 13 -14 9 -30 -5 -21 -3 -24 19 -24 14 0 29 -4
32 -10 3 -6 -1 -10 -9 -10 -10 0 -13 -7 -11 -22 3 -13 -3 -29 -15 -40 -26 -24
-43 -23 -35 2 5 15 3 18 -8 14 -8 -3 -17 -16 -19 -29 -4 -19 0 -25 16 -27 33
-5 34 -46 2 -54 -28 -7 -36 -34 -11 -34 9 0 15 -9 15 -22 0 -17 3 -19 12 -10
21 21 47 14 54 -15 5 -19 2 -30 -12 -41 -13 -9 -15 -16 -7 -19 13 -5 0 -45
-25 -75 -9 -11 -10 -18 -3 -23 6 -3 11 -13 11 -21 0 -12 -7 -14 -30 -9 -18 4
-30 3 -30 -4 0 -6 7 -8 15 -5 18 7 19 -9 4 -39 -20 -38 -49 -49 -49 -19 -1 16
-1 16 -14 0 -7 -10 -18 -18 -25 -18 -6 0 -11 -4 -11 -10 0 -5 -7 -10 -15 -10
-20 0 -19 17 3 29 12 7 13 10 3 11 -11 0 -10 4 3 19 16 18 16 19 -8 23 -32 6
-43 -1 -51 -35 -9 -33 -16 -38 -69 -48 -28 -5 -49 -2 -73 9 -28 13 -38 14 -54
4 -13 -8 -25 -10 -32 -4 -15 12 -123 18 -217 12 -25 -2 -54 0 -65 4 -15 5 -23
1 -30 -15 -11 -23 -32 -27 -27 -4 4 21 -34 38 -57 25 -13 -7 -28 -7 -45 0 -14
5 -110 9 -213 9 -104 -1 -201 -1 -218 0 -187 2 -545 -1 -563 -6 -13 -3 -35 0
-48 7 -20 11 -30 11 -57 -2 -44 -21 -120 -10 -171 25 -21 15 -36 27 -32 27 13
0 -25 47 -49 60 -13 7 -29 26 -35 43 -13 38 -13 37 3 37 7 0 19 -16 26 -35 14
-41 36 -36 27 5 -6 32 6 41 49 33 21 -5 26 -3 20 7 -5 8 1 19 16 31 19 14 24
28 25 63 1 33 -2 46 -12 46 -8 0 -14 -10 -14 -25 0 -14 -3 -25 -7 -26 -24 -2
-54 -6 -98 -13 -46 -7 -48 -6 -30 8 l20 15 -20 15 c-16 12 -17 17 -7 24 19 13
62 2 62 -14 0 -8 5 -14 11 -14 5 0 8 4 4 9 -3 6 2 14 11 19 11 6 15 16 11 26
-9 24 -7 31 8 28 15 -3 9 34 -7 44 -11 7 10 34 27 34 7 0 15 -7 19 -15 3 -8
13 -15 22 -15 13 0 14 3 4 15 -11 13 -8 15 16 15 25 1 26 2 11 11 -9 6 -15 14
-12 19 11 18 -31 30 -52 15 -21 -15 -33 -11 -33 12 0 7 7 13 15 13 8 0 15 3
15 8 0 12 74 31 85 22 7 -6 15 -2 22 10 10 15 8 19 -13 24 -14 4 -22 11 -19
16 9 15 -14 50 -32 50 -12 0 -14 3 -6 11 8 8 17 8 31 0 12 -6 23 -7 26 -2 7
11 -17 21 -47 21 -24 0 -52 -34 -42 -50 4 -6 15 -10 26 -10 22 0 24 -9 6 -34
-11 -15 -17 -16 -34 -7 -14 7 -19 17 -16 30 3 10 0 22 -6 25 -17 11 -13 27 7
24 10 -2 17 3 17 12 0 8 4 20 8 26 4 7 0 17 -8 24 -24 20 -3 54 34 56 33 2 38
-5 19 -24 -10 -9 -8 -16 5 -29 18 -18 21 -14 30 40 3 18 0 27 -9 27 -18 0 -18
14 1 30 8 7 15 8 15 2 0 -21 43 -22 58 -1 12 18 24 20 103 18 49 -1 93 1 96 5
4 3 16 3 27 -1 12 -3 82 -6 156 -4z m-505 -19 c3 -5 1 -10 -4 -10 -6 0 -11 5
-11 10 0 6 2 10 4 10 3 0 8 -4 11 -10z m3131 -20 c60 0 131 -6 158 -13 40 -9
50 -9 54 1 3 10 7 10 18 1 12 -10 12 -13 -2 -24 -14 -9 -14 -16 -5 -33 6 -12
18 -22 25 -22 16 0 66 -45 66 -60 0 -7 -9 -5 -22 4 -28 20 -48 20 -48 1 0 -8
-7 -15 -16 -15 -8 0 -12 5 -9 10 4 6 2 16 -3 23 -5 7 -12 21 -15 32 -4 16 -5
14 -6 -7 -1 -34 -12 -41 -48 -28 -27 10 -27 10 7 -20 26 -23 42 -29 63 -25 15
2 27 0 27 -5 0 -6 -10 -11 -22 -11 -21 -1 -21 -2 -3 -6 11 -3 30 -13 43 -23
l23 -18 -30 -7 c-16 -3 -38 -2 -49 4 -22 12 -32 6 -32 -19 0 -29 25 -43 50
-28 18 11 23 10 36 -7 14 -18 13 -20 -6 -23 -16 -3 -18 -7 -11 -16 8 -9 7 -18
-2 -31 -12 -15 -16 -16 -35 -4 -25 16 -36 8 -28 -19 5 -14 13 -18 33 -14 18 3
24 1 19 -7 -4 -6 -2 -11 4 -11 6 0 13 7 16 15 8 20 20 19 28 -2 4 -10 -2 -25
-15 -40 -13 -12 -17 -23 -11 -23 7 0 12 -4 12 -9 0 -5 -9 -7 -20 -4 -10 3 -18
10 -17 17 1 6 -5 10 -14 8 -15 -2 -39 17 -62 50 -9 14 -18 16 -42 9 l-30 -8
27 -8 c38 -10 54 -31 38 -50 -10 -12 -10 -15 1 -15 11 0 11 -2 0 -9 -12 -8
-12 -12 -2 -25 8 -9 20 -16 27 -16 8 0 14 -4 14 -10 0 -5 7 -10 15 -10 8 0 12
6 9 13 -2 7 8 17 26 24 33 13 48 2 24 -17 -8 -7 -13 -19 -10 -27 3 -7 -1 -13
-11 -13 -12 0 -13 -3 -4 -14 16 -19 -10 -61 -48 -79 -14 -7 -27 -22 -29 -35
-3 -18 1 -22 22 -22 28 0 33 9 14 28 -6 6 -8 15 -4 19 4 4 11 1 16 -7 8 -12
10 -10 10 7 0 25 43 59 60 48 6 -4 10 -32 9 -66 -2 -55 -11 -75 -22 -46 -3 9
-12 8 -35 -5 -18 -9 -41 -14 -54 -10 -21 5 -22 4 -8 -14 8 -10 21 -23 28 -27
16 -10 6 -28 -12 -21 -8 3 -17 1 -20 -4 -3 -5 4 -13 17 -16 18 -5 19 -8 7 -15
-13 -8 -32 -8 -117 -2 -7 1 -13 7 -13 14 0 8 -7 14 -15 14 -10 0 -12 -4 -5
-12 15 -19 -14 -38 -42 -29 -18 6 -123 9 -123 4 0 -1 -33 -3 -73 -5 -55 -2
-75 1 -79 11 -3 9 -13 12 -29 8 -19 -5 -23 -3 -18 10 3 9 1 16 -5 16 -6 0 -11
-6 -11 -14 0 -8 -5 -18 -11 -22 -6 -3 -119 -8 -252 -9 -240 -3 -272 0 -290 31
-4 8 -15 14 -23 14 -8 0 -12 4 -9 10 3 5 0 20 -7 32 -23 42 -16 76 18 94 21
12 30 23 27 34 -3 11 3 19 16 23 12 3 21 12 21 21 0 9 4 16 10 16 5 0 7 7 3
15 -6 19 -28 14 -28 -5 0 -7 -6 -15 -12 -17 -7 -3 -13 2 -13 11 0 9 -5 16 -11
16 -6 0 -9 -7 -5 -15 3 -9 0 -15 -9 -15 -8 0 -15 6 -15 14 0 8 -9 16 -20 18
-12 2 -20 8 -20 13 1 6 10 9 21 7 11 -2 18 2 17 9 -2 6 3 14 10 16 7 3 12 1
11 -4 -6 -36 25 -11 35 27 3 14 3 19 0 13 -7 -17 -29 -16 -42 0 -9 10 -6 18 9
30 11 10 24 15 29 12 6 -4 10 3 10 14 0 10 2 26 5 33 4 11 -3 13 -32 9 -21 -3
-30 -6 -20 -9 17 -4 24 -22 8 -22 -20 0 -42 13 -52 32 -8 15 -6 22 12 37 21
17 19 49 -2 36 -17 -11 -9 37 11 62 20 26 23 24 21 -14 -3 -34 13 -34 51 -3
26 22 35 36 31 50 -3 11 -9 20 -14 20 -5 0 -9 5 -9 11 0 6 6 9 14 6 18 -7 62
38 47 48 -16 9 -13 35 4 35 8 0 15 6 16 13 1 19 7 49 11 52 12 11 48 15 48 5
0 -6 11 -3 25 8 23 18 43 20 296 21 150 0 274 3 277 6 3 2 8 2 12 0 4 -3 57
-5 116 -5z m-1136 -10 c0 -5 -4 -10 -10 -10 -5 0 -10 5 -10 10 0 6 5 10 10 10
6 0 10 -4 10 -10z m248 -189 c3 -8 -1 -12 -9 -9 -7 2 -15 10 -17 17 -3 8 1 12
9 9 7 -2 15 -10 17 -17z m-70 -31 c3 -9 -1 -11 -12 -7 -13 5 -16 0 -16 -28 0
-43 -14 -45 -28 -5 -9 26 -8 32 11 45 24 17 39 15 45 -5z m-2258 -60 c0 -5 -5
-10 -11 -10 -5 0 -7 5 -4 10 3 6 8 10 11 10 2 0 4 -4 4 -10z m-35 -10 c3 -5
-1 -10 -10 -10 -9 0 -13 5 -10 10 3 6 8 10 10 10 2 0 7 -4 10 -10z m-5 -100
c0 -5 -7 -10 -16 -10 -8 0 -12 5 -9 10 3 6 10 10 16 10 5 0 9 -4 9 -10z m48
-1 c-2 -6 -8 -10 -13 -10 -5 0 -11 4 -13 10 -2 6 4 11 13 11 9 0 15 -5 13 -11z
m3542 -3 c0 -9 -40 -13 -46 -5 -3 5 6 9 20 9 14 0 26 -2 26 -4z m-3575 -46
c-6 -9 -9 -9 -16 1 -10 17 0 34 13 21 6 -6 7 -16 3 -22z m-130 -10 c3 -5 1
-10 -4 -10 -6 0 -11 5 -11 10 0 6 2 10 4 10 3 0 8 -4 11 -10z m155 0 c0 -5 -4
-10 -10 -10 -5 0 -10 5 -10 10 0 6 5 10 10 10 6 0 10 -4 10 -10z m3514 -15
c-7 -16 -24 -21 -24 -6 0 8 7 13 27 20 1 1 0 -6 -3 -14z m-3640 -30 c-5 -19
-2 -25 10 -25 34 0 5 -30 -34 -35 -3 0 -11 -4 -19 -9 -10 -7 -12 -6 -6 4 6 10
4 12 -9 7 -14 -6 -17 -2 -14 16 2 16 9 22 26 21 23 -1 29 10 12 21 -15 9 -2
25 21 25 16 0 18 -5 13 -25z m126 -55 c0 -5 -4 -10 -10 -10 -5 0 -10 5 -10 10
0 6 5 10 10 10 6 0 10 -4 10 -10z m60 0 c0 -5 -4 -10 -10 -10 -5 0 -10 5 -10
10 0 6 5 10 10 10 6 0 10 -4 10 -10z m-29 -25 c0 -6 -10 -12 -23 -13 -19 -4
-20 -2 -9 12 15 17 33 18 32 1z m-104 -21 c-3 -3 -12 -4 -19 -1 -8 3 -5 6 6 6
11 1 17 -2 13 -5z m2373 -33 c0 -6 -4 -13 -10 -16 -5 -3 -10 1 -10 9 0 9 5 16
10 16 6 0 10 -4 10 -9z m1290 -15 c0 -3 -4 -8 -10 -11 -5 -3 -10 -1 -10 4 0 6
5 11 10 11 6 0 10 -2 10 -4z m-30 -75 c0 -13 -30 -22 -43 -14 -7 4 -2 10 13
14 14 4 26 7 28 8 1 1 2 -3 2 -8z m30 -33 c0 -19 -2 -20 -10 -8 -13 19 -13 30
0 30 6 0 10 -10 10 -22z m-78 -10 c-7 -7 -12 -20 -12 -30 0 -21 -19 -23 -44
-5 -17 13 -17 14 -1 30 9 9 28 17 43 17 20 0 23 -3 14 -12z"/>
<path d="M1840 3035 c0 -25 -16 -31 -59 -25 -9 1 -12 -4 -7 -15 4 -12 0 -19
-15 -22 -15 -4 -19 -11 -15 -26 3 -12 0 -28 -7 -36 -10 -12 -9 -14 6 -8 10 4
21 7 23 7 2 0 4 11 4 25 0 22 3 25 26 19 19 -5 25 -4 20 5 -4 6 0 11 9 11 12
0 15 5 11 16 -5 12 -2 15 10 10 26 -10 34 2 22 34 -12 36 -28 39 -28 5z"/>
<path d="M3400 3040 c0 -6 7 -10 15 -10 8 0 15 2 15 4 0 2 -7 6 -15 10 -8 3
-15 1 -15 -4z"/>
<path d="M3577 3024 c-8 -8 1 -24 14 -24 5 0 9 7 9 15 0 15 -12 20 -23 9z"/>
<path d="M2036 2989 c16 -17 16 -22 4 -29 -21 -13 -3 -12 21 1 20 10 19 11 -5
30 -32 25 -44 24 -20 -2z"/>
<path d="M2350 2982 c0 -12 19 -26 26 -19 2 2 -2 10 -11 17 -9 8 -15 8 -15 2z"/>
<path d="M3628 2972 c-10 -2 -18 -8 -18 -13 0 -13 27 -11 35 2 9 13 4 16 -17
11z"/>
<path d="M3400 2960 c0 -5 5 -10 10 -10 6 0 10 5 10 10 0 6 -4 10 -10 10 -5 0
-10 -4 -10 -10z"/>
<path d="M2270 2946 c0 -2 7 -9 15 -16 13 -11 14 -10 9 4 -5 14 -24 23 -24 12z"/>
<path d="M3587 2943 c-4 -3 -7 -13 -7 -22 1 -13 3 -13 11 2 11 19 8 33 -4 20z"/>
<path d="M2390 2930 c0 -5 7 -10 15 -10 8 0 15 5 15 10 0 6 -7 10 -15 10 -8 0
-15 -4 -15 -10z"/>
<path d="M3630 2930 c-12 -8 -11 -10 8 -10 12 0 25 0 29 -1 4 0 9 4 11 10 5
14 -28 14 -48 1z"/>
<path d="M2217 2916 c-4 -10 0 -12 14 -9 10 3 16 9 13 14 -8 13 -21 11 -27 -5z"/>
<path d="M3486 2885 c-27 -23 -28 -25 -8 -25 12 0 21 4 20 9 -2 5 6 17 17 25
11 8 16 16 10 16 -5 0 -23 -11 -39 -25z"/>
<path d="M3554 2891 c3 -5 -2 -12 -12 -16 -16 -6 -15 -8 3 -15 24 -9 85 -1 85
11 0 5 -11 9 -24 9 -14 0 -28 5 -31 10 -3 6 -11 10 -16 10 -6 0 -8 -4 -5 -9z"/>
<path d="M1692 2838 c-6 -6 -12 -20 -12 -29 0 -10 -6 -19 -12 -22 -7 -2 -9 -8
-5 -13 4 -5 11 -3 16 4 4 6 22 15 41 18 28 6 32 5 27 -9 -8 -20 3 -22 26 -4
15 11 15 14 -2 34 -23 27 -62 38 -79 21z"/>
<path d="M1910 2800 c0 -5 5 -10 10 -10 6 0 10 5 10 10 0 6 -4 10 -10 10 -5 0
-10 -4 -10 -10z"/>
<path d="M3596 2763 c-11 -11 -6 -23 9 -23 8 0 15 -5 15 -11 0 -7 -10 -9 -24
-7 -25 5 -44 -16 -26 -27 10 -6 60 15 60 26 0 5 7 6 15 3 9 -4 15 0 15 10 0 9
-4 17 -10 17 -20 3 -25 4 -36 11 -6 4 -14 5 -18 1z"/>
<path d="M1790 2736 c0 -9 5 -16 10 -16 6 0 10 4 10 9 0 6 -4 13 -10 16 -5 3
-10 -1 -10 -9z"/>
<path d="M1890 2726 c0 -8 -10 -16 -22 -18 -29 -4 -36 -28 -8 -28 12 0 18 -4
15 -10 -3 -5 2 -10 13 -10 21 0 40 35 34 63 -4 20 -32 23 -32 3z"/>
<path d="M1950 2730 c0 -12 8 -12 35 0 18 8 17 9 -7 9 -16 1 -28 -3 -28 -9z"/>
<path d="M3043 2693 c9 -2 23 -2 30 0 6 3 -1 5 -18 5 -16 0 -22 -2 -12 -5z"/>
<path d="M1805 2680 c3 -5 8 -10 11 -10 2 0 4 5 4 10 0 6 -5 10 -11 10 -5 0
-7 -4 -4 -10z"/>
<path d="M3566 2655 c-3 -8 -17 -15 -31 -15 -14 0 -25 -4 -25 -10 0 -5 8 -10
18 -10 9 0 23 -9 30 -20 11 -18 10 -20 -10 -20 -18 0 -20 -2 -9 -9 8 -6 24 -6
38 0 14 5 23 5 23 -1 0 -6 5 -10 10 -10 6 0 10 7 10 15 0 8 5 15 10 15 18 0
10 29 -10 35 -11 3 -20 15 -20 26 0 22 -25 26 -34 4z"/>
<path d="M1853 2626 c-29 -13 -29 -18 2 -32 20 -10 27 -9 39 5 14 15 13 18 -2
27 -11 6 -24 6 -39 0z m27 -16 c0 -5 -4 -10 -10 -10 -5 0 -10 5 -10 10 0 6 5
10 10 10 6 0 10 -4 10 -10z"/>
<path d="M1770 2609 c0 -12 25 -22 41 -17 6 2 0 9 -15 16 -16 7 -26 8 -26 1z"/>
<path d="M3495 2560 c3 -5 8 -10 11 -10 2 0 4 5 4 10 0 6 -5 10 -11 10 -5 0
-7 -4 -4 -10z"/>
<path d="M1777 2506 c-4 -9 5 -19 24 -26 32 -14 35 -20 17 -39 -11 -11 -9 -13
10 -8 15 3 25 0 29 -9 5 -14 33 -20 33 -8 0 4 -10 15 -21 25 -16 13 -20 25
-15 43 3 14 1 28 -4 31 -6 4 -9 1 -8 -7 2 -7 -7 -14 -19 -16 -17 -3 -21 0 -17
12 4 10 1 16 -9 16 -8 0 -17 -6 -20 -14z"/>
<path d="M3566 2511 c-3 -5 4 -11 16 -14 30 -8 35 -1 9 12 -11 6 -22 7 -25 2z"/>
<path d="M3660 2490 c0 -5 5 -10 10 -10 6 0 10 5 10 10 0 6 -4 10 -10 10 -5 0
-10 -4 -10 -10z"/>
<path d="M1915 2430 c-3 -5 -1 -10 4 -10 6 0 11 5 11 10 0 6 -2 10 -4 10 -3 0
-8 -4 -11 -10z"/>
<path d="M3505 2420 c-3 -6 1 -7 9 -4 18 7 21 14 7 14 -6 0 -13 -4 -16 -10z"/>
<path d="M3542 2408 c-18 -18 -14 -28 8 -28 11 0 20 6 20 14 0 21 -15 27 -28
14z"/>
<path d="M3340 2389 c0 -5 5 -7 10 -4 6 3 10 8 10 11 0 2 -4 4 -10 4 -5 0 -10
-5 -10 -11z"/>
<path d="M1802 2369 c-17 -27 -14 -38 3 -15 12 16 18 17 27 8 7 -7 16 -12 21
-12 12 0 -1 18 -22 29 -13 7 -20 5 -29 -10z"/>
<path d="M3456 2371 c-4 -5 3 -7 14 -4 23 6 26 13 6 13 -8 0 -17 -4 -20 -9z"/>
<path d="M3543 2345 c-3 -9 -3 -18 0 -22 9 -9 -22 -63 -36 -63 -8 0 -7 -4 3
-10 21 -14 30 -12 30 5 0 8 9 23 21 33 15 14 18 26 13 46 -7 29 -22 34 -31 11z"/>
<path d="M3510 2340 c-8 -5 -11 -12 -7 -16 4 -4 13 -2 19 4 15 15 7 24 -12 12z"/>
<path d="M520 3045 c-17 -21 -5 -31 15 -12 8 9 15 18 15 21 0 11 -18 6 -30 -9z"/>
<path d="M738 3043 c7 -3 16 -2 19 1 4 3 -2 6 -13 5 -11 0 -14 -3 -6 -6z"/>
<path d="M450 3024 c0 -8 9 -14 20 -14 11 0 20 4 20 9 0 5 -9 11 -20 14 -13 3
-20 0 -20 -9z"/>
<path d="M860 3030 c0 -5 5 -10 10 -10 6 0 10 5 10 10 0 6 -4 10 -10 10 -5 0
-10 -4 -10 -10z"/>
<path d="M555 3010 c4 -6 11 -8 16 -5 14 9 11 15 -7 15 -8 0 -12 -5 -9 -10z"/>
<path d="M1040 3000 c0 -5 5 -10 10 -10 6 0 10 5 10 10 0 6 -4 10 -10 10 -5 0
-10 -4 -10 -10z"/>
<path d="M527 2982 c2 -11 15 -18 35 -19 35 -3 35 -1 -8 20 -30 15 -32 15 -27
-1z"/>
<path d="M1252 2988 c-14 -14 -16 -48 -3 -48 6 0 13 5 16 10 3 6 2 10 -4 10
-6 0 -8 7 -5 15 4 10 13 13 25 10 11 -4 19 -2 19 4 0 15 -33 14 -48 -1z"/>
<path d="M1350 2980 c0 -5 5 -10 10 -10 6 0 10 5 10 10 0 6 -4 10 -10 10 -5 0
-10 -4 -10 -10z"/>
<path d="M518 2943 c7 -3 16 -2 19 1 4 3 -2 6 -13 5 -11 0 -14 -3 -6 -6z"/>
<path d="M560 2940 c0 -5 5 -10 10 -10 6 0 10 5 10 10 0 6 -4 10 -10 10 -5 0
-10 -4 -10 -10z"/>
<path d="M627 2936 c-4 -10 -1 -13 9 -9 15 6 19 23 5 23 -5 0 -11 -7 -14 -14z"/>
<path d="M580 2883 c0 -18 5 -33 10 -33 13 0 13 30 0 50 -7 11 -10 7 -10 -17z"/>
<path d="M637 2880 c6 -22 21 -35 30 -27 2 3 2 15 -2 26 -8 28 -35 28 -28 1z"/>
<path d="M1333 2889 c-25 -9 -32 -39 -10 -39 17 0 51 36 40 43 -4 2 -18 1 -30
-4z"/>
<path d="M1272 2758 c3 -7 18 -14 34 -16 28 -3 28 -3 9 12 -24 19 -48 21 -43
4z"/>
<path d="M1210 2720 c20 -13 33 -13 25 0 -3 6 -14 10 -23 10 -15 0 -15 -2 -2
-10z"/>
<path d="M510 2700 c0 -5 5 -10 10 -10 6 0 19 -9 31 -21 16 -16 23 -18 35 -9
11 10 7 16 -23 31 -42 22 -53 23 -53 9z"/>
<path d="M520 2653 c-23 -9 -76 -63 -61 -63 6 0 23 11 37 25 14 14 31 25 39
25 8 0 15 5 15 10 0 11 -7 12 -30 3z"/>
<path d="M1280 2600 c0 -5 5 -10 10 -10 6 0 10 5 10 10 0 6 -4 10 -10 10 -5 0
-10 -4 -10 -10z"/>
<path d="M1260 2555 c7 -9 15 -13 17 -11 7 7 -7 26 -19 26 -6 0 -6 -6 2 -15z"/>
<path d="M1335 2540 c3 -5 8 -10 11 -10 2 0 4 5 4 10 0 6 -5 10 -11 10 -5 0
-7 -4 -4 -10z"/>
<path d="M640 2529 c0 -5 4 -8 9 -4 5 3 12 1 16 -5 3 -5 12 -10 18 -10 7 0 3
7 -7 15 -23 18 -36 19 -36 4z"/>
<path d="M1210 2531 c0 -10 30 -24 37 -17 3 2 -5 9 -16 16 -12 6 -21 7 -21 1z"/>
<path d="M1315 2500 c3 -5 10 -10 16 -10 5 0 9 5 9 10 0 6 -7 10 -16 10 -8 0
-12 -4 -9 -10z"/>
<path d="M1170 2490 c0 -5 5 -10 11 -10 5 0 7 5 4 10 -3 6 -8 10 -11 10 -2 0
-4 -4 -4 -10z"/>
<path d="M572 2453 c-2 -21 1 -24 10 -15 19 19 30 14 23 -9 -6 -18 -5 -19 13
-8 19 12 19 13 -6 36 -32 29 -37 29 -40 -4z"/>
<path d="M1185 2410 c-3 -5 -1 -10 4 -10 6 0 11 5 11 10 0 6 -2 10 -4 10 -3 0
-8 -4 -11 -10z"/>
<path d="M1285 2400 c3 -5 8 -10 11 -10 2 0 4 5 4 10 0 6 -5 10 -11 10 -5 0
-7 -4 -4 -10z"/>
<path d="M1335 2400 c4 -6 11 -8 16 -5 14 9 11 15 -7 15 -8 0 -12 -5 -9 -10z"/>
<path d="M1146 2383 c-6 -14 -5 -15 5 -6 7 7 10 15 7 18 -3 3 -9 -2 -12 -12z"/>
<path d="M695 2360 c-3 -5 1 -10 9 -10 9 0 16 5 16 10 0 6 -4 10 -9 10 -6 0
-13 -4 -16 -10z"/>
<path d="M1220 2359 c0 -5 5 -7 10 -4 6 3 10 8 10 11 0 2 -4 4 -10 4 -5 0 -10
-5 -10 -11z"/>
<path d="M547 2354 c-4 -4 -7 -14 -7 -23 0 -11 3 -12 11 -4 6 6 10 16 7 23 -2
6 -7 8 -11 4z"/>
<path d="M1277 2340 c-3 -13 0 -20 9 -20 8 0 14 -4 14 -10 0 -17 19 -11 30 11
13 24 13 24 -21 32 -21 6 -28 3 -32 -13z"/>
<path d="M1050 2330 c11 -11 22 -20 25 -20 3 0 0 9 -7 20 -7 11 -18 20 -25 20
-8 0 -5 -8 7 -20z"/>
<path d="M1109 2336 c7 -9 23 -16 34 -16 26 0 12 15 -23 25 -22 7 -23 6 -11
-9z"/>
<path d="M1210 2326 c0 -2 7 -7 16 -10 8 -3 12 -2 9 4 -6 10 -25 14 -25 6z"/>
<path d="M1225 2291 c-6 -11 9 -23 19 -14 9 9 7 23 -3 23 -6 0 -12 -4 -16 -9z"/>
<path d="M635 2280 c3 -5 8 -10 11 -10 2 0 4 5 4 10 0 6 -5 10 -11 10 -5 0 -7
-4 -4 -10z"/>
<path d="M1415 2010 c3 -5 8 -10 11 -10 2 0 4 5 4 10 0 6 -5 10 -11 10 -5 0
-7 -4 -4 -10z"/>
<path d="M465 1990 c-3 -5 1 -10 10 -10 9 0 13 5 10 10 -3 6 -8 10 -10 10 -2
0 -7 -4 -10 -10z"/>
<path d="M3607 1969 c-3 -13 -1 -19 6 -16 15 5 22 37 9 37 -5 0 -12 -9 -15
-21z"/>
<path d="M3463 1963 c-16 -12 -15 -13 3 -13 27 0 64 11 64 19 0 11 -49 6 -67
-6z"/>
<path d="M3546 1945 c-3 -8 -1 -15 4 -15 6 0 10 7 10 15 0 8 -2 15 -4 15 -2 0
-6 -7 -10 -15z"/>
<path d="M3655 1920 c-3 -6 1 -7 9 -4 18 7 21 14 7 14 -6 0 -13 -4 -16 -10z"/>
<path d="M1859 1873 c-13 -16 -12 -17 4 -4 9 7 17 15 17 17 0 8 -8 3 -21 -13z"/>
<path d="M496 1855 c4 -8 10 -12 15 -9 11 6 2 24 -11 24 -5 0 -7 -7 -4 -15z"/>
<path d="M3543 1853 c-18 -7 -16 -23 2 -23 8 0 15 7 15 15 0 8 -1 15 -2 14 -2
0 -9 -3 -15 -6z"/>
<path d="M560 1839 c0 -5 5 -7 10 -4 6 3 10 8 10 11 0 2 -4 4 -10 4 -5 0 -10
-5 -10 -11z"/>
<path d="M650 1840 c0 -5 5 -10 11 -10 5 0 7 5 4 10 -3 6 -8 10 -11 10 -2 0
-4 -4 -4 -10z"/>
<path d="M3690 1820 c0 -5 5 -10 10 -10 6 0 10 5 10 10 0 6 -4 10 -10 10 -5 0
-10 -4 -10 -10z"/>
<path d="M482 1788 c3 -7 13 -15 24 -17 16 -3 17 -1 5 13 -16 19 -34 21 -29 4z"/>
<path d="M3581 1753 c4 -25 -3 -43 -18 -43 -15 0 -15 -2 1 -19 20 -22 14 -41
-12 -41 -11 0 -13 -3 -5 -11 11 -11 53 8 53 24 0 5 7 15 15 23 8 9 15 20 15
26 0 5 -7 8 -15 4 -11 -4 -15 1 -15 19 0 14 -4 25 -10 25 -5 0 -9 -3 -9 -7z"/>
<path d="M540 1710 c0 -5 5 -10 11 -10 5 0 7 5 4 10 -3 6 -8 10 -11 10 -2 0
-4 -4 -4 -10z"/>
<path d="M485 1700 c3 -5 13 -10 21 -10 8 0 12 5 9 10 -3 6 -13 10 -21 10 -8
0 -12 -4 -9 -10z"/>
<path d="M440 1662 c0 -7 -6 -12 -12 -12 -7 0 -19 -4 -27 -9 -11 -7 -9 -13 8
-30 25 -25 37 -26 45 -6 3 9 0 15 -10 15 -12 0 -13 4 -4 21 7 11 9 23 6 27 -3
3 -6 0 -6 -6z"/>
<path d="M480 1609 c0 -11 5 -17 10 -14 6 3 10 13 10 21 0 8 -4 14 -10 14 -5
0 -10 -9 -10 -21z"/>
<path d="M738 1553 c7 -3 16 -2 19 1 4 3 -2 6 -13 5 -11 0 -14 -3 -6 -6z"/>
<path d="M518 1522 c-3 -11 2 -23 12 -30 24 -15 30 -6 16 23 -13 30 -22 31
-28 7z"/>
<path d="M626 1515 c-3 -9 0 -15 9 -15 8 0 15 7 15 15 0 8 -4 15 -9 15 -5 0
-11 -7 -15 -15z"/>
<path d="M540 1420 c0 -15 21 -23 32 -12 6 6 2 11 -11 15 -12 3 -21 1 -21 -3z"/>
<path d="M3497 1410 c4 -13 11 -19 20 -16 8 3 22 6 31 6 23 0 3 17 -30 25 -24
6 -26 4 -21 -15z"/>
<path d="M510 1400 c0 -5 5 -10 11 -10 5 0 7 5 4 10 -3 6 -8 10 -11 10 -2 0
-4 -4 -4 -10z"/>
<path d="M2585 1400 c3 -5 11 -10 16 -10 6 0 7 5 4 10 -3 6 -11 10 -16 10 -6
0 -7 -4 -4 -10z"/>
<path d="M3570 1379 c0 -5 5 -7 10 -4 6 3 10 8 10 11 0 2 -4 4 -10 4 -5 0 -10
-5 -10 -11z"/>
<path d="M445 1350 c2 -33 19 -42 38 -20 14 17 14 20 2 20 -8 0 -15 5 -15 10
0 6 -6 10 -13 10 -8 0 -13 -9 -12 -20z"/>
<path d="M3463 1347 c-4 -7 -21 -18 -36 -25 -15 -7 -25 -17 -22 -22 4 -6 15
-4 30 6 16 11 34 13 59 8 37 -6 42 -1 30 30 -7 19 -50 21 -61 3z"/>
<path d="M3340 1340 c0 -5 5 -10 10 -10 6 0 10 5 10 10 0 6 -4 10 -10 10 -5 0
-10 -4 -10 -10z"/>
<path d="M2657 1314 c3 -7 9 -14 14 -14 14 0 10 17 -5 23 -10 4 -13 1 -9 -9z"/>
<path d="M2750 1301 c0 -5 7 -15 17 -22 15 -13 15 -12 4 9 -12 23 -21 28 -21
13z"/>
<path d="M3638 1303 c6 -2 18 -2 25 0 6 3 1 5 -13 5 -14 0 -19 -2 -12 -5z"/>
<path d="M685 1270 c3 -5 10 -10 16 -10 5 0 9 5 9 10 0 6 -7 10 -16 10 -8 0
-12 -4 -9 -10z"/>
<path d="M3510 1270 c0 -5 11 -10 24 -10 14 0 28 5 31 10 4 6 -7 10 -24 10
-17 0 -31 -4 -31 -10z"/>
<path d="M3680 1270 c0 -5 5 -10 11 -10 5 0 7 5 4 10 -3 6 -8 10 -11 10 -2 0
-4 -4 -4 -10z"/>
<path d="M2060 1222 c0 -12 19 -26 26 -19 2 2 -2 10 -11 17 -9 8 -15 8 -15 2z"/>
<path d="M2241 948 c0 -9 -4 -25 -7 -35 -5 -14 -4 -15 5 -7 7 7 11 22 8 35 -2
13 -5 16 -6 7z"/>
<path d="M570 895 c0 -8 4 -15 9 -15 5 0 11 7 15 15 3 9 0 15 -9 15 -8 0 -15
-7 -15 -15z"/>
<path d="M1119 899 c-11 -7 -10 -9 4 -9 10 0 15 -4 12 -10 -3 -5 -2 -10 3 -10
6 0 12 6 15 14 7 18 -15 27 -34 15z"/>
<path d="M2260 900 c0 -5 5 -10 11 -10 5 0 7 5 4 10 -3 6 -8 10 -11 10 -2 0
-4 -4 -4 -10z"/>
<path d="M2360 890 c0 -5 5 -10 11 -10 5 0 7 5 4 10 -3 6 -8 10 -11 10 -2 0
-4 -4 -4 -10z"/>
<path d="M2305 880 c-3 -6 1 -7 9 -4 18 7 21 14 7 14 -6 0 -13 -4 -16 -10z"/>
<path d="M2275 830 c3 -5 11 -10 16 -10 6 0 7 5 4 10 -3 6 -11 10 -16 10 -6 0
-7 -4 -4 -10z"/>
<path d="M2220 814 c0 -8 5 -12 10 -9 6 4 8 11 5 16 -9 14 -15 11 -15 -7z"/>
<path d="M2340 819 c0 -5 5 -7 10 -4 6 3 10 8 10 11 0 2 -4 4 -10 4 -5 0 -10
-5 -10 -11z"/>
<path d="M2446 808 c3 -4 -2 -8 -11 -8 -10 0 -15 -7 -13 -17 2 -14 11 -17 33
-14 39 4 45 8 45 31 0 14 -7 18 -30 18 -16 -1 -27 -5 -24 -10z"/>
<path d="M2270 801 c0 -16 28 -20 34 -5 4 9 -1 14 -14 14 -11 0 -20 -4 -20 -9z"/>
<path d="M2380 751 c0 -6 5 -13 10 -16 6 -3 10 1 10 9 0 9 -4 16 -10 16 -5 0
-10 -4 -10 -9z"/>
<path d="M2420 732 c0 -6 5 -14 10 -17 6 -3 10 -10 10 -16 0 -13 -38 -11 -42
3 -2 6 -14 13 -27 15 -15 2 -21 -1 -18 -9 2 -7 11 -12 21 -10 9 2 16 -2 16 -8
0 -13 47 -13 55 0 4 6 15 8 26 5 10 -4 19 -3 19 0 0 11 -27 34 -34 28 -3 -3
-12 0 -21 7 -9 8 -15 8 -15 2z"/>
<path d="M2218 713 c7 -3 16 -2 19 1 4 3 -2 6 -13 5 -11 0 -14 -3 -6 -6z"/>
<path d="M2460 670 c-13 -8 -13 -10 2 -10 9 0 20 5 23 10 8 13 -5 13 -25 0z"/>
<path d="M2315 650 c-3 -5 3 -10 15 -10 12 0 18 5 15 10 -3 6 -10 10 -15 10
-5 0 -12 -4 -15 -10z"/>
<path d="M2266 592 c-3 -3 -6 -9 -6 -13 0 -11 53 -4 57 7 3 10 -42 15 -51 6z"/>
<path d="M630 549 c0 -5 5 -7 10 -4 6 3 10 8 10 11 0 2 -4 4 -10 4 -5 0 -10
-5 -10 -11z"/>
<path d="M2270 541 c0 -10 6 -19 13 -18 35 1 46 -4 41 -18 -4 -9 0 -15 10 -15
13 0 14 4 4 25 -7 15 -17 24 -25 21 -7 -3 -13 -1 -13 3 0 5 -7 11 -15 15 -10
3 -15 -1 -15 -13z"/>
<path d="M2146 521 c-4 -7 -5 -15 -2 -18 9 -9 19 4 14 18 -4 11 -6 11 -12 0z"/>
<path d="M2274 417 c-6 -17 2 -37 15 -37 9 0 8 37 -2 46 -4 4 -9 0 -13 -9z"/>
<path d="M2466 385 c-8 -8 -19 -15 -24 -15 -13 0 -10 -18 6 -45 11 -19 12 -19
36 10 28 33 34 65 12 65 -8 0 -21 -7 -30 -15z"/>
<path d="M626 369 c3 -6 0 -16 -7 -21 -12 -8 -11 -9 1 -5 18 4 27 37 10 37 -6
0 -8 -5 -4 -11z"/>
<path d="M481 311 c-8 -5 -9 -11 -3 -15 5 -3 12 1 16 9 6 17 6 18 -13 6z"/>
<path d="M548 293 c7 -3 16 -2 19 1 4 3 -2 6 -13 5 -11 0 -14 -3 -6 -6z"/>
<path d="M2375 290 c-3 -4 2 -16 11 -24 12 -13 13 -20 5 -30 -9 -11 -9 -16 0
-21 6 -4 14 -3 18 2 3 5 14 13 25 16 15 6 16 10 6 22 -10 13 -9 15 11 15 17 0
20 3 12 11 -14 14 -80 21 -88 9z"/>
<path d="M401 244 c0 -11 3 -14 6 -6 3 7 2 16 -1 19 -3 4 -6 -2 -5 -13z"/>
<path d="M2240 150 c0 -5 5 -10 10 -10 6 0 10 5 10 10 0 6 -4 10 -10 10 -5 0
-10 -4 -10 -10z"/>
<path d="M3543 871 c-29 -25 -31 -30 -17 -42 14 -11 15 -10 12 7 -2 13 3 20
20 22 14 2 22 10 22 23 0 24 1 24 -37 -10z"/>
<path d="M2880 856 c0 -8 5 -18 10 -21 6 -3 10 1 10 9 0 8 -4 18 -10 21 -5 3
-10 -1 -10 -9z"/>
<path d="M3578 823 c7 -3 16 -2 19 1 4 3 -2 6 -13 5 -11 0 -14 -3 -6 -6z"/>
<path d="M3670 799 c0 -5 -7 -9 -15 -9 -8 0 -15 -4 -15 -10 0 -5 11 -10 24
-10 13 0 33 -3 43 -6 14 -4 15 -4 4 4 -7 5 -11 14 -7 20 3 5 -3 12 -14 15 -11
3 -20 1 -20 -4z"/>
<path d="M3662 729 c-22 -20 -22 -39 0 -39 5 0 8 7 5 14 -4 9 2 17 14 21 10 4
19 11 19 16 0 15 -15 10 -38 -12z"/>
<path d="M2806 732 c-12 -11 -5 -18 19 -20 14 -1 25 2 25 7 0 10 -36 21 -44
13z"/>
<path d="M3720 679 c0 -5 5 -7 10 -4 6 3 10 8 10 11 0 2 -4 4 -10 4 -5 0 -10
-5 -10 -11z"/>
<path d="M3662 669 c2 -6 8 -10 13 -10 5 0 11 4 13 10 2 6 -4 11 -13 11 -9 0
-15 -5 -13 -11z"/>
<path d="M3730 650 c0 -5 5 -10 11 -10 5 0 7 5 4 10 -3 6 -8 10 -11 10 -2 0
-4 -4 -4 -10z"/>
<path d="M2690 629 c0 -5 9 -9 20 -9 11 0 20 2 20 4 0 2 -9 6 -20 9 -11 3 -20
1 -20 -4z"/>
<path d="M2740 636 c0 -2 7 -7 16 -10 8 -3 12 -2 9 4 -6 10 -25 14 -25 6z"/>
<path d="M3690 614 c0 -8 5 -12 10 -9 6 3 10 10 10 16 0 5 -4 9 -10 9 -5 0
-10 -7 -10 -16z"/>
<path d="M3527 493 c-4 -3 -7 -11 -7 -17 0 -6 5 -5 12 2 6 6 9 14 7 17 -3 3
-9 2 -12 -2z"/>
<path d="M3616 493 c-12 -12 -5 -23 14 -23 11 0 20 4 20 9 0 11 -26 22 -34 14z"/>
<path d="M3575 463 c27 -25 56 -37 49 -18 -3 7 -13 16 -22 19 -9 3 -24 9 -32
12 -9 4 -7 -1 5 -13z"/>
<path d="M2730 439 c0 -5 5 -7 10 -4 6 3 10 8 10 11 0 2 -4 4 -10 4 -5 0 -10
-5 -10 -11z"/>
<path d="M3691 441 c-7 -5 -12 -11 -12 -15 1 -3 1 -7 0 -8 -8 -28 -5 -39 9
-36 10 2 16 12 15 23 -1 11 3 23 9 26 6 4 6 9 1 12 -5 3 -15 2 -22 -2z"/>
<path d="M3726 405 c4 -8 8 -15 10 -15 2 0 4 7 4 15 0 8 -4 15 -10 15 -5 0 -7
-7 -4 -15z"/>
<path d="M3050 400 c0 -5 5 -10 10 -10 6 0 10 5 10 10 0 6 -4 10 -10 10 -5 0
-10 -4 -10 -10z"/>
<path d="M2736 347 c3 -10 9 -15 12 -12 3 3 0 11 -7 18 -10 9 -11 8 -5 -6z"/>
<path d="M2690 325 c-15 -19 -11 -25 12 -16 11 4 14 11 9 19 -6 10 -10 10 -21
-3z"/>
<path d="M3254 299 c-3 -6 -1 -16 5 -22 8 -8 11 -5 11 11 0 24 -5 28 -16 11z"/>
<path d="M2895 260 c-3 -5 -4 -10 -1 -10 2 0 11 -3 20 -6 11 -4 16 -1 16 10 0
18 -25 22 -35 6z"/>
<path d="M3623 243 c9 -9 19 -14 23 -11 10 10 -6 28 -24 28 -15 0 -15 -1 1
-17z"/>
<path d="M3570 222 c0 -12 19 -26 26 -19 2 2 -2 10 -11 17 -9 8 -15 8 -15 2z"/>
<path d="M2732 195 c6 -14 15 -25 19 -25 4 0 2 11 -4 25 -7 14 -15 25 -19 25
-4 0 -2 -11 4 -25z"/>
<path d="M2640 199 c0 -5 5 -7 10 -4 6 3 10 8 10 11 0 2 -4 4 -10 4 -5 0 -10
-5 -10 -11z"/>
<path d="M2788 166 c8 -28 14 -31 38 -18 9 5 12 15 8 26 -5 13 -9 15 -15 5 -6
-10 -10 -10 -23 0 -13 11 -14 9 -8 -13z"/>
</g>
</svg>
